<?xml version="1.0" encoding="UTF-8"?>
<svg xmlns="http://www.w3.org/2000/svg" xmlns:xlink="http://www.w3.org/1999/xlink" width="291.128pt" height="163.607pt" viewBox="0 0 291.128 163.607">
<defs>
<g>
<g id="glyph-0-0">
<path d="M 4.578125 -3.1875 C 4.578125 -3.96875 4.515625 -4.765625 4.171875 -5.5 C 3.71875 -6.453125 2.90625 -6.625 2.484375 -6.625 C 1.890625 -6.625 1.15625 -6.359375 0.75 -5.4375 C 0.4375 -4.75 0.390625 -3.96875 0.390625 -3.1875 C 0.390625 -2.4375 0.421875 -1.546875 0.828125 -0.78125 C 1.265625 0.015625 1.984375 0.21875 2.46875 0.21875 C 3.015625 0.21875 3.765625 0.015625 4.203125 -0.9375 C 4.515625 -1.625 4.578125 -2.390625 4.578125 -3.1875 Z M 2.46875 0 C 2.09375 0 1.5 -0.25 1.328125 -1.203125 C 1.21875 -1.796875 1.21875 -2.71875 1.21875 -3.296875 C 1.21875 -3.9375 1.21875 -4.59375 1.296875 -5.125 C 1.484375 -6.3125 2.21875 -6.40625 2.46875 -6.40625 C 2.796875 -6.40625 3.453125 -6.21875 3.640625 -5.234375 C 3.75 -4.6875 3.75 -3.921875 3.75 -3.296875 C 3.75 -2.546875 3.75 -1.875 3.640625 -1.25 C 3.484375 -0.296875 2.921875 0 2.46875 0 Z M 2.46875 0 "/>
</g>
<g id="glyph-0-1">
<path d="M 4.46875 -2 C 4.46875 -3.1875 3.640625 -4.171875 2.578125 -4.171875 C 2.09375 -4.171875 1.671875 -4.015625 1.3125 -3.671875 L 1.3125 -5.609375 C 1.515625 -5.546875 1.84375 -5.46875 2.15625 -5.46875 C 3.375 -5.46875 4.078125 -6.375 4.078125 -6.515625 C 4.078125 -6.5625 4.046875 -6.625 3.96875 -6.625 C 3.96875 -6.625 3.9375 -6.625 3.890625 -6.59375 C 3.703125 -6.5 3.203125 -6.296875 2.546875 -6.296875 C 2.140625 -6.296875 1.6875 -6.375 1.21875 -6.578125 C 1.140625 -6.609375 1.125 -6.609375 1.109375 -6.609375 C 1 -6.609375 1 -6.53125 1 -6.375 L 1 -3.421875 C 1 -3.25 1 -3.171875 1.140625 -3.171875 C 1.21875 -3.171875 1.234375 -3.203125 1.265625 -3.265625 C 1.375 -3.421875 1.75 -3.953125 2.546875 -3.953125 C 3.078125 -3.953125 3.3125 -3.5 3.40625 -3.3125 C 3.5625 -2.953125 3.578125 -2.5625 3.578125 -2.0625 C 3.578125 -1.71875 3.578125 -1.125 3.34375 -0.703125 C 3.09375 -0.3125 2.734375 -0.0625 2.28125 -0.0625 C 1.546875 -0.0625 0.984375 -0.59375 0.8125 -1.171875 C 0.84375 -1.15625 0.875 -1.15625 0.984375 -1.15625 C 1.3125 -1.15625 1.484375 -1.40625 1.484375 -1.640625 C 1.484375 -1.875 1.3125 -2.125 0.984375 -2.125 C 0.84375 -2.125 0.5 -2.0625 0.5 -1.59375 C 0.5 -0.75 1.1875 0.21875 2.296875 0.21875 C 3.453125 0.21875 4.46875 -0.734375 4.46875 -2 Z M 4.46875 -2 "/>
</g>
<g id="glyph-0-2">
<path d="M 2.921875 -6.359375 C 2.921875 -6.59375 2.921875 -6.625 2.6875 -6.625 C 2.078125 -5.984375 1.203125 -5.984375 0.890625 -5.984375 L 0.890625 -5.671875 C 1.078125 -5.671875 1.671875 -5.671875 2.1875 -5.9375 L 2.1875 -0.78125 C 2.1875 -0.421875 2.15625 -0.3125 1.265625 -0.3125 L 0.9375 -0.3125 L 0.9375 0 C 1.296875 -0.03125 2.15625 -0.03125 2.546875 -0.03125 C 2.953125 -0.03125 3.8125 -0.03125 4.15625 0 L 4.15625 -0.3125 L 3.84375 -0.3125 C 2.953125 -0.3125 2.921875 -0.421875 2.921875 -0.78125 Z M 2.921875 -6.359375 "/>
</g>
<g id="glyph-0-3">
<path d="M 1.265625 -0.765625 L 2.3125 -1.78125 C 3.859375 -3.15625 4.46875 -3.703125 4.46875 -4.6875 C 4.46875 -5.828125 3.5625 -6.625 2.359375 -6.625 C 1.234375 -6.625 0.5 -5.703125 0.5 -4.8125 C 0.5 -4.265625 1 -4.265625 1.03125 -4.265625 C 1.1875 -4.265625 1.546875 -4.375 1.546875 -4.796875 C 1.546875 -5.046875 1.359375 -5.3125 1.015625 -5.3125 C 0.9375 -5.3125 0.921875 -5.3125 0.890625 -5.296875 C 1.109375 -5.9375 1.65625 -6.3125 2.21875 -6.3125 C 3.125 -6.3125 3.5625 -5.5 3.5625 -4.6875 C 3.5625 -3.890625 3.0625 -3.109375 2.515625 -2.5 L 0.609375 -0.375 C 0.5 -0.265625 0.5 -0.234375 0.5 0 L 4.1875 0 L 4.46875 -1.734375 L 4.21875 -1.734375 C 4.15625 -1.4375 4.09375 -1 4 -0.84375 C 3.921875 -0.765625 3.265625 -0.765625 3.046875 -0.765625 Z M 1.265625 -0.765625 "/>
</g>
<g id="glyph-0-4">
<path d="M 2.875 -3.5 C 3.703125 -3.765625 4.265625 -4.46875 4.265625 -5.25 C 4.265625 -6.0625 3.40625 -6.625 2.4375 -6.625 C 1.4375 -6.625 0.6875 -6.015625 0.6875 -5.265625 C 0.6875 -4.9375 0.90625 -4.75 1.1875 -4.75 C 1.5 -4.75 1.703125 -4.96875 1.703125 -5.25 C 1.703125 -5.75 1.234375 -5.75 1.078125 -5.75 C 1.390625 -6.234375 2.046875 -6.375 2.40625 -6.375 C 2.8125 -6.375 3.359375 -6.15625 3.359375 -5.25 C 3.359375 -5.140625 3.34375 -4.5625 3.078125 -4.125 C 2.78125 -3.640625 2.4375 -3.625 2.203125 -3.609375 C 2.109375 -3.59375 1.875 -3.578125 1.8125 -3.578125 C 1.734375 -3.5625 1.65625 -3.5625 1.65625 -3.453125 C 1.65625 -3.34375 1.734375 -3.34375 1.890625 -3.34375 L 2.328125 -3.34375 C 3.15625 -3.34375 3.515625 -2.671875 3.515625 -1.703125 C 3.515625 -0.34375 2.828125 -0.0625 2.390625 -0.0625 C 1.96875 -0.0625 1.21875 -0.234375 0.875 -0.8125 C 1.21875 -0.765625 1.53125 -0.984375 1.53125 -1.359375 C 1.53125 -1.71875 1.265625 -1.921875 0.96875 -1.921875 C 0.734375 -1.921875 0.421875 -1.78125 0.421875 -1.34375 C 0.421875 -0.4375 1.34375 0.21875 2.421875 0.21875 C 3.640625 0.21875 4.546875 -0.6875 4.546875 -1.703125 C 4.546875 -2.515625 3.921875 -3.296875 2.875 -3.5 Z M 2.875 -3.5 "/>
</g>
<g id="glyph-0-5">
<path d="M 2.921875 -1.640625 L 2.921875 -0.78125 C 2.921875 -0.421875 2.90625 -0.3125 2.171875 -0.3125 L 1.953125 -0.3125 L 1.953125 0 C 2.359375 -0.03125 2.875 -0.03125 3.296875 -0.03125 C 3.71875 -0.03125 4.25 -0.03125 4.65625 0 L 4.65625 -0.3125 L 4.4375 -0.3125 C 3.703125 -0.3125 3.6875 -0.421875 3.6875 -0.78125 L 3.6875 -1.640625 L 4.6875 -1.640625 L 4.6875 -1.953125 L 3.6875 -1.953125 L 3.6875 -6.46875 C 3.6875 -6.671875 3.6875 -6.734375 3.53125 -6.734375 C 3.4375 -6.734375 3.40625 -6.734375 3.328125 -6.609375 L 0.28125 -1.953125 L 0.28125 -1.640625 Z M 2.984375 -1.953125 L 0.5625 -1.953125 L 2.984375 -5.65625 Z M 2.984375 -1.953125 "/>
</g>
<g id="glyph-0-6">
<path d="M 3.640625 -3.15625 L 3.640625 -2.84375 C 3.640625 -0.515625 2.609375 -0.0625 2.03125 -0.0625 C 1.875 -0.0625 1.328125 -0.078125 1.0625 -0.421875 C 1.5 -0.421875 1.578125 -0.703125 1.578125 -0.875 C 1.578125 -1.1875 1.34375 -1.328125 1.125 -1.328125 C 0.96875 -1.328125 0.671875 -1.25 0.671875 -0.859375 C 0.671875 -0.1875 1.203125 0.21875 2.046875 0.21875 C 3.328125 0.21875 4.546875 -1.140625 4.546875 -3.265625 C 4.546875 -5.9375 3.40625 -6.625 2.515625 -6.625 C 1.96875 -6.625 1.484375 -6.4375 1.046875 -6 C 0.640625 -5.546875 0.421875 -5.125 0.421875 -4.375 C 0.421875 -3.140625 1.296875 -2.171875 2.40625 -2.171875 C 3.015625 -2.171875 3.421875 -2.578125 3.640625 -3.15625 Z M 2.421875 -2.390625 C 2.25 -2.390625 1.796875 -2.390625 1.484375 -3.015625 C 1.3125 -3.390625 1.3125 -3.890625 1.3125 -4.375 C 1.3125 -4.90625 1.3125 -5.375 1.515625 -5.75 C 1.78125 -6.234375 2.171875 -6.375 2.515625 -6.375 C 2.96875 -6.375 3.296875 -6.03125 3.46875 -5.578125 C 3.59375 -5.265625 3.625 -4.640625 3.625 -4.1875 C 3.625 -3.359375 3.296875 -2.390625 2.421875 -2.390625 Z M 2.421875 -2.390625 "/>
</g>
<g id="glyph-0-7">
<path d="M 1.625 -4.546875 C 1.15625 -4.84375 1.125 -5.171875 1.125 -5.34375 C 1.125 -5.953125 1.765625 -6.375 2.46875 -6.375 C 3.203125 -6.375 3.828125 -5.859375 3.828125 -5.140625 C 3.828125 -4.578125 3.453125 -4.09375 2.859375 -3.75 Z M 3.078125 -3.59375 C 3.78125 -3.96875 4.265625 -4.484375 4.265625 -5.140625 C 4.265625 -6.046875 3.390625 -6.625 2.484375 -6.625 C 1.484375 -6.625 0.6875 -5.890625 0.6875 -4.953125 C 0.6875 -4.78125 0.703125 -4.328125 1.125 -3.859375 C 1.234375 -3.75 1.59375 -3.5 1.84375 -3.328125 C 1.265625 -3.046875 0.421875 -2.484375 0.421875 -1.5 C 0.421875 -0.453125 1.4375 0.21875 2.46875 0.21875 C 3.59375 0.21875 4.546875 -0.609375 4.546875 -1.671875 C 4.546875 -2.03125 4.4375 -2.46875 4.046875 -2.890625 C 3.859375 -3.09375 3.703125 -3.203125 3.078125 -3.59375 Z M 2.078125 -3.1875 L 3.296875 -2.40625 C 3.578125 -2.21875 4.046875 -1.921875 4.046875 -1.3125 C 4.046875 -0.578125 3.296875 -0.0625 2.484375 -0.0625 C 1.625 -0.0625 0.921875 -0.671875 0.921875 -1.5 C 0.921875 -2.078125 1.234375 -2.71875 2.078125 -3.1875 Z M 2.078125 -3.1875 "/>
</g>
<g id="glyph-0-8">
<path d="M 3.296875 2.390625 C 3.296875 2.359375 3.296875 2.328125 3.125 2.171875 C 1.875 0.921875 1.5625 -0.96875 1.5625 -2.484375 C 1.5625 -4.21875 1.9375 -5.9375 3.15625 -7.1875 C 3.296875 -7.296875 3.296875 -7.328125 3.296875 -7.359375 C 3.296875 -7.421875 3.25 -7.453125 3.1875 -7.453125 C 3.09375 -7.453125 2.203125 -6.78125 1.609375 -5.515625 C 1.109375 -4.421875 0.984375 -3.3125 0.984375 -2.484375 C 0.984375 -1.703125 1.09375 -0.5 1.640625 0.609375 C 2.234375 1.84375 3.09375 2.484375 3.1875 2.484375 C 3.25 2.484375 3.296875 2.453125 3.296875 2.390625 Z M 3.296875 2.390625 "/>
</g>
<g id="glyph-0-9">
<path d="M 2.875 -2.484375 C 2.875 -3.265625 2.765625 -4.46875 2.21875 -5.578125 C 1.625 -6.8125 0.765625 -7.453125 0.671875 -7.453125 C 0.609375 -7.453125 0.5625 -7.40625 0.5625 -7.359375 C 0.5625 -7.328125 0.5625 -7.296875 0.75 -7.125 C 1.734375 -6.140625 2.296875 -4.5625 2.296875 -2.484375 C 2.296875 -0.78125 1.921875 0.96875 0.703125 2.21875 C 0.5625 2.328125 0.5625 2.359375 0.5625 2.390625 C 0.5625 2.4375 0.609375 2.484375 0.671875 2.484375 C 0.765625 2.484375 1.65625 1.8125 2.25 0.546875 C 2.75 -0.546875 2.875 -1.65625 2.875 -2.484375 Z M 2.875 -2.484375 "/>
</g>
<g id="glyph-0-10">
<path d="M 1.09375 -3.421875 L 1.09375 -0.75 C 1.09375 -0.3125 0.984375 -0.3125 0.3125 -0.3125 L 0.3125 0 C 0.671875 -0.015625 1.171875 -0.03125 1.4375 -0.03125 C 1.703125 -0.03125 2.21875 -0.015625 2.546875 0 L 2.546875 -0.3125 C 1.890625 -0.3125 1.78125 -0.3125 1.78125 -0.75 L 1.78125 -2.578125 C 1.78125 -3.625 2.484375 -4.171875 3.125 -4.171875 C 3.75 -4.171875 3.859375 -3.640625 3.859375 -3.078125 L 3.859375 -0.75 C 3.859375 -0.3125 3.75 -0.3125 3.078125 -0.3125 L 3.078125 0 C 3.421875 -0.015625 3.9375 -0.03125 4.203125 -0.03125 C 4.46875 -0.03125 4.984375 -0.015625 5.3125 0 L 5.3125 -0.3125 C 4.65625 -0.3125 4.546875 -0.3125 4.546875 -0.75 L 4.546875 -2.578125 C 4.546875 -3.625 5.25 -4.171875 5.890625 -4.171875 C 6.515625 -4.171875 6.625 -3.640625 6.625 -3.078125 L 6.625 -0.75 C 6.625 -0.3125 6.515625 -0.3125 5.84375 -0.3125 L 5.84375 0 C 6.1875 -0.015625 6.703125 -0.03125 6.96875 -0.03125 C 7.21875 -0.03125 7.734375 -0.015625 8.078125 0 L 8.078125 -0.3125 C 7.5625 -0.3125 7.3125 -0.3125 7.296875 -0.609375 L 7.296875 -2.5 C 7.296875 -3.359375 7.296875 -3.671875 7 -4.03125 C 6.859375 -4.1875 6.53125 -4.390625 5.953125 -4.390625 C 5.125 -4.390625 4.6875 -3.796875 4.515625 -3.421875 C 4.375 -4.28125 3.640625 -4.390625 3.1875 -4.390625 C 2.46875 -4.390625 2 -3.96875 1.71875 -3.34375 L 1.71875 -4.390625 L 0.3125 -4.28125 L 0.3125 -3.96875 C 1.015625 -3.96875 1.09375 -3.90625 1.09375 -3.421875 Z M 1.09375 -3.421875 "/>
</g>
<g id="glyph-0-11">
<path d="M 2.0625 -1.921875 C 2.28125 -1.890625 3.09375 -1.734375 3.09375 -1.015625 C 3.09375 -0.5 2.75 -0.109375 1.984375 -0.109375 C 1.140625 -0.109375 0.78125 -0.671875 0.59375 -1.515625 C 0.5625 -1.65625 0.5625 -1.6875 0.453125 -1.6875 C 0.328125 -1.6875 0.328125 -1.625 0.328125 -1.4375 L 0.328125 -0.125 C 0.328125 0.046875 0.328125 0.109375 0.4375 0.109375 C 0.484375 0.109375 0.5 0.09375 0.6875 -0.09375 C 0.703125 -0.109375 0.703125 -0.125 0.890625 -0.3125 C 1.328125 0.09375 1.765625 0.109375 1.984375 0.109375 C 3.125 0.109375 3.578125 -0.5625 3.578125 -1.265625 C 3.578125 -1.796875 3.28125 -2.09375 3.15625 -2.21875 C 2.828125 -2.53125 2.4375 -2.609375 2.03125 -2.6875 C 1.46875 -2.796875 0.8125 -2.9375 0.8125 -3.515625 C 0.8125 -3.859375 1.0625 -4.265625 1.921875 -4.265625 C 3.015625 -4.265625 3.0625 -3.375 3.078125 -3.0625 C 3.09375 -2.96875 3.1875 -2.96875 3.203125 -2.96875 C 3.328125 -2.96875 3.328125 -3.015625 3.328125 -3.203125 L 3.328125 -4.21875 C 3.328125 -4.375 3.328125 -4.453125 3.21875 -4.453125 C 3.171875 -4.453125 3.15625 -4.453125 3.015625 -4.328125 C 2.984375 -4.296875 2.890625 -4.203125 2.859375 -4.171875 C 2.46875 -4.453125 2.0625 -4.453125 1.921875 -4.453125 C 0.703125 -4.453125 0.328125 -3.78125 0.328125 -3.234375 C 0.328125 -2.875 0.484375 -2.609375 0.75 -2.390625 C 1.078125 -2.125 1.34375 -2.0625 2.0625 -1.921875 Z M 2.0625 -1.921875 "/>
</g>
<g id="glyph-1-0">
<path d="M 1.90625 -0.53125 C 1.90625 -0.8125 1.671875 -1.046875 1.375 -1.046875 C 1.09375 -1.046875 0.859375 -0.8125 0.859375 -0.53125 C 0.859375 -0.234375 1.09375 0 1.375 0 C 1.671875 0 1.90625 -0.234375 1.90625 -0.53125 Z M 1.90625 -0.53125 "/>
</g>
<g id="glyph-1-1">
<path d="M 4.25 -6.03125 C 4.3125 -6.3125 4.359375 -6.375 4.46875 -6.40625 C 4.5625 -6.421875 4.890625 -6.421875 5.09375 -6.421875 C 6.109375 -6.421875 6.546875 -6.375 6.546875 -5.609375 C 6.546875 -5.453125 6.515625 -5.0625 6.46875 -4.8125 C 6.453125 -4.765625 6.4375 -4.65625 6.4375 -4.625 C 6.4375 -4.5625 6.46875 -4.484375 6.5625 -4.484375 C 6.671875 -4.484375 6.6875 -4.578125 6.703125 -4.71875 L 6.96875 -6.453125 C 6.984375 -6.484375 7 -6.59375 7 -6.625 C 7 -6.734375 6.890625 -6.734375 6.734375 -6.734375 L 1.21875 -6.734375 C 0.96875 -6.734375 0.96875 -6.71875 0.890625 -6.53125 L 0.296875 -4.78125 C 0.28125 -4.765625 0.234375 -4.625 0.234375 -4.59375 C 0.234375 -4.546875 0.28125 -4.484375 0.359375 -4.484375 C 0.453125 -4.484375 0.46875 -4.546875 0.53125 -4.703125 C 1.0625 -6.234375 1.328125 -6.421875 2.796875 -6.421875 L 3.1875 -6.421875 C 3.453125 -6.421875 3.453125 -6.375 3.453125 -6.296875 C 3.453125 -6.234375 3.421875 -6.125 3.421875 -6.09375 L 2.09375 -0.78125 C 2 -0.421875 1.96875 -0.3125 0.90625 -0.3125 C 0.546875 -0.3125 0.484375 -0.3125 0.484375 -0.125 C 0.484375 0 0.59375 0 0.65625 0 C 0.921875 0 1.203125 -0.015625 1.46875 -0.015625 C 1.75 -0.015625 2.03125 -0.03125 2.3125 -0.03125 C 2.59375 -0.03125 2.875 -0.015625 3.140625 -0.015625 C 3.421875 -0.015625 3.734375 0 4 0 C 4.109375 0 4.21875 0 4.21875 -0.203125 C 4.21875 -0.3125 4.140625 -0.3125 3.890625 -0.3125 C 3.640625 -0.3125 3.515625 -0.3125 3.25 -0.328125 C 2.96875 -0.359375 2.875 -0.390625 2.875 -0.546875 C 2.875 -0.5625 2.875 -0.609375 2.921875 -0.75 Z M 4.25 -6.03125 "/>
</g>
<g id="glyph-1-2">
<path d="M 2.046875 -3.96875 L 2.984375 -3.96875 C 3.1875 -3.96875 3.28125 -3.96875 3.28125 -4.171875 C 3.28125 -4.28125 3.1875 -4.28125 3 -4.28125 L 2.125 -4.28125 C 2.484375 -5.6875 2.53125 -5.890625 2.53125 -5.953125 C 2.53125 -6.125 2.421875 -6.21875 2.25 -6.21875 C 2.21875 -6.21875 1.9375 -6.21875 1.84375 -5.859375 L 1.453125 -4.28125 L 0.53125 -4.28125 C 0.328125 -4.28125 0.234375 -4.28125 0.234375 -4.09375 C 0.234375 -3.96875 0.3125 -3.96875 0.5 -3.96875 L 1.375 -3.96875 C 0.671875 -1.15625 0.625 -0.984375 0.625 -0.8125 C 0.625 -0.265625 1 0.109375 1.546875 0.109375 C 2.546875 0.109375 3.125 -1.34375 3.125 -1.421875 C 3.125 -1.515625 3.046875 -1.515625 3 -1.515625 C 2.90625 -1.515625 2.90625 -1.484375 2.859375 -1.375 C 2.421875 -0.34375 1.890625 -0.109375 1.5625 -0.109375 C 1.34375 -0.109375 1.25 -0.234375 1.25 -0.5625 C 1.25 -0.8125 1.265625 -0.875 1.3125 -1.046875 Z M 2.046875 -3.96875 "/>
</g>
<g id="glyph-2-0">
<path d="M -2.3125 -7.03125 C -2.359375 -7.0625 -2.4375 -7.078125 -2.453125 -7.078125 C -2.46875 -7.078125 -2.5625 -7.078125 -2.5625 -6.96875 C -2.5625 -6.875 -2.5 -6.859375 -2.4375 -6.84375 C -0.96875 -6.1875 -0.3125 -5.828125 -0.3125 -4.125 L -0.3125 -2.671875 C -0.3125 -2.53125 -0.3125 -2.515625 -0.3125 -2.453125 C -0.328125 -2.359375 -0.34375 -2.328125 -0.421875 -2.328125 C -0.453125 -2.328125 -0.46875 -2.328125 -0.640625 -2.375 L -3.359375 -3.046875 L -3.359375 -4.03125 C -3.359375 -4.875 -3.15625 -4.875 -2.90625 -4.875 C -2.828125 -4.875 -2.71875 -4.875 -2.421875 -4.8125 C -2.359375 -4.796875 -2.328125 -4.78125 -2.3125 -4.78125 C -2.25 -4.78125 -2.203125 -4.8125 -2.203125 -4.90625 C -2.203125 -4.984375 -2.25 -5.015625 -2.390625 -5.0625 L -4.71875 -5.625 C -4.78125 -5.625 -4.828125 -5.578125 -4.828125 -5.5 C -4.828125 -5.421875 -4.765625 -5.390625 -4.65625 -5.359375 C -3.890625 -5.15625 -3.671875 -4.984375 -3.671875 -4.0625 L -3.671875 -3.125 L -6.0625 -3.734375 C -6.40625 -3.8125 -6.453125 -3.828125 -6.453125 -4.265625 L -6.453125 -5.671875 C -6.453125 -6.875 -6.15625 -7.171875 -5.34375 -7.171875 C -5.109375 -7.171875 -5.09375 -7.171875 -4.8125 -7.140625 C -4.765625 -7.140625 -4.6875 -7.125 -4.640625 -7.125 C -4.59375 -7.125 -4.515625 -7.15625 -4.515625 -7.25 C -4.515625 -7.359375 -4.578125 -7.359375 -4.765625 -7.390625 L -6.484375 -7.578125 C -6.75 -7.609375 -6.75 -7.5625 -6.75 -7.3125 L -6.75 -2.296875 C -6.75 -2.09375 -6.75 -2 -6.5625 -2 C -6.453125 -2 -6.453125 -2.09375 -6.453125 -2.28125 C -6.453125 -2.640625 -6.453125 -2.921875 -6.265625 -2.921875 C -6.234375 -2.921875 -6.21875 -2.921875 -6.03125 -2.875 L -0.78125 -1.5625 C -0.390625 -1.453125 -0.3125 -1.4375 -0.3125 -0.65625 C -0.3125 -0.484375 -0.3125 -0.375 -0.125 -0.375 C 0 -0.375 0 -0.46875 0 -0.65625 L 0 -5.8125 C 0 -6.046875 -0.015625 -6.046875 -0.171875 -6.125 Z M -2.3125 -7.03125 "/>
</g>
<g id="glyph-2-1">
<path d="M -3.484375 -2.296875 C -3.703125 -2.34375 -4.078125 -2.4375 -4.125 -2.4375 C -4.296875 -2.4375 -4.390625 -2.328125 -4.390625 -2.15625 C -4.390625 -2.125 -4.375 -1.84375 -4.03125 -1.765625 L 1.71875 -0.328125 C 1.84375 -0.296875 1.859375 -0.296875 1.875 -0.296875 C 2.03125 -0.296875 2.140625 -0.40625 2.140625 -0.578125 C 2.140625 -0.78125 1.96875 -0.90625 1.9375 -0.921875 C 1.84375 -0.96875 1.328125 -1.09375 -0.203125 -1.46875 C 0.0625 -1.78125 0.109375 -2.234375 0.109375 -2.4375 C 0.109375 -3.125 -0.34375 -3.515625 -0.609375 -3.75 C -0.171875 -3.84375 0.109375 -4.21875 0.109375 -4.65625 C 0.109375 -5 -0.125 -5.234375 -0.4375 -5.390625 C -0.796875 -5.5625 -1.40625 -5.6875 -1.421875 -5.6875 C -1.515625 -5.6875 -1.515625 -5.59375 -1.515625 -5.5625 C -1.515625 -5.46875 -1.484375 -5.453125 -1.34375 -5.421875 C -0.703125 -5.25 -0.109375 -5.078125 -0.109375 -4.671875 C -0.109375 -4.40625 -0.375 -4.375 -0.5625 -4.375 C -0.78125 -4.375 -1.25 -4.484375 -1.59375 -4.578125 L -2.671875 -4.84375 C -2.828125 -4.875 -3.203125 -4.984375 -3.34375 -5.015625 C -3.578125 -5.0625 -3.953125 -5.171875 -4.015625 -5.171875 C -4.1875 -5.171875 -4.28125 -5.03125 -4.28125 -4.875 C -4.28125 -4.828125 -4.265625 -4.578125 -3.9375 -4.484375 L -2.078125 -4.03125 C -1.578125 -3.90625 -1.15625 -3.796875 -1.0625 -3.765625 C -1.015625 -3.75 -0.109375 -3.28125 -0.109375 -2.46875 C -0.109375 -1.984375 -0.4375 -1.734375 -0.96875 -1.734375 C -1.265625 -1.734375 -1.546875 -1.8125 -1.8125 -1.875 Z M -3.484375 -2.296875 "/>
</g>
<g id="glyph-3-0">
<path d="M -1.578125 -1.5625 C -1.578125 -1.75 -1.59375 -2.296875 -1.734375 -2.671875 C -1.90625 -3.1875 -2.25 -3.28125 -2.453125 -3.28125 C -2.84375 -3.28125 -3.0625 -2.90625 -3.0625 -2.421875 C -3.0625 -1.59375 -2.421875 -0.46875 -1.234375 -0.46875 C -0.53125 -0.46875 0.0625 -0.90625 0.0625 -1.71875 C 0.0625 -2.890625 -0.625 -3.4375 -0.71875 -3.4375 C -0.765625 -3.4375 -0.828125 -3.375 -0.828125 -3.328125 C -0.828125 -3.28125 -0.828125 -3.265625 -0.765625 -3.21875 C -0.125 -2.671875 -0.125 -1.859375 -0.125 -1.734375 C -0.125 -1.3125 -0.40625 -1.03125 -0.96875 -1.03125 C -1.0625 -1.03125 -1.203125 -1.03125 -1.578125 -1.125 Z M -1.78125 -1.171875 C -2.78125 -1.453125 -2.875 -2.234375 -2.875 -2.421875 C -2.875 -2.734375 -2.71875 -2.984375 -2.453125 -2.984375 C -1.78125 -2.984375 -1.78125 -1.8125 -1.78125 -1.515625 Z M -1.78125 -1.171875 "/>
</g>
<g id="glyph-4-0">
<path d="M 2.390625 -3.296875 C 2.359375 -3.296875 2.328125 -3.296875 2.171875 -3.125 C 0.921875 -1.875 -0.96875 -1.5625 -2.484375 -1.5625 C -4.21875 -1.5625 -5.9375 -1.9375 -7.1875 -3.15625 C -7.296875 -3.296875 -7.328125 -3.296875 -7.359375 -3.296875 C -7.421875 -3.296875 -7.453125 -3.25 -7.453125 -3.1875 C -7.453125 -3.09375 -6.78125 -2.203125 -5.515625 -1.609375 C -4.421875 -1.109375 -3.3125 -0.984375 -2.484375 -0.984375 C -1.703125 -0.984375 -0.5 -1.09375 0.609375 -1.640625 C 1.84375 -2.234375 2.484375 -3.09375 2.484375 -3.1875 C 2.484375 -3.25 2.453125 -3.296875 2.390625 -3.296875 Z M 2.390625 -3.296875 "/>
</g>
<g id="glyph-4-1">
<path d="M -1.46875 -3 C -0.5625 -3 0 -2.5 0 -1.984375 C 0 -1.921875 0 -1.25 -0.578125 -0.890625 C -0.578125 -1.40625 -0.875 -1.515625 -1.140625 -1.515625 C -1.484375 -1.515625 -1.6875 -1.25 -1.6875 -0.96875 C -1.6875 -0.75 -1.546875 -0.40625 -1.109375 -0.40625 C -0.375 -0.40625 0.21875 -1.109375 0.21875 -2 C 0.21875 -3.015625 -0.484375 -3.734375 -1.21875 -3.84375 C -1.296875 -3.859375 -1.328125 -3.859375 -1.65625 -3.859375 L -6.078125 -3.859375 C -6.484375 -3.859375 -6.484375 -4 -6.484375 -4.625 L -6.78125 -4.625 C -6.765625 -4.1875 -6.75 -3.8125 -6.75 -3.34375 C -6.75 -2.921875 -6.75 -2.046875 -6.78125 -1.671875 L -6.484375 -1.671875 L -6.484375 -2.03125 C -6.484375 -3 -6.34375 -3 -6 -3 Z M -1.46875 -3 "/>
</g>
<g id="glyph-4-2">
<path d="M -2.484375 -2.875 C -3.265625 -2.875 -4.46875 -2.765625 -5.578125 -2.21875 C -6.8125 -1.625 -7.453125 -0.765625 -7.453125 -0.671875 C -7.453125 -0.609375 -7.40625 -0.5625 -7.359375 -0.5625 C -7.328125 -0.5625 -7.296875 -0.5625 -7.125 -0.75 C -6.140625 -1.734375 -4.5625 -2.296875 -2.484375 -2.296875 C -0.78125 -2.296875 0.96875 -1.921875 2.21875 -0.703125 C 2.328125 -0.5625 2.359375 -0.5625 2.390625 -0.5625 C 2.4375 -0.5625 2.484375 -0.609375 2.484375 -0.671875 C 2.484375 -0.765625 1.8125 -1.65625 0.546875 -2.25 C -0.546875 -2.75 -1.65625 -2.875 -2.484375 -2.875 Z M -2.484375 -2.875 "/>
</g>
</g>
<clipPath id="clip-0">
<path clip-rule="nonzero" d="M 43.570312 4 L 281.488281 4 L 281.488281 128.097656 L 43.570312 128.097656 Z M 43.570312 4 "/>
</clipPath>
<clipPath id="clip-1">
<path clip-rule="nonzero" d="M 43.570312 10 L 89 10 L 89 128.097656 L 43.570312 128.097656 Z M 43.570312 10 "/>
</clipPath>
</defs>
<path fill="none" stroke-width="0.19925" stroke-linecap="butt" stroke-linejoin="miter" stroke="rgb(50%, 50%, 50%)" stroke-opacity="1" stroke-miterlimit="10" d="M 0.00181631 -2.124348 L 0.00181631 2.126628 M 39.772929 -2.124348 L 39.772929 2.126628 M 79.544041 -2.124348 L 79.544041 2.126628 M 119.315153 -2.124348 L 119.315153 2.126628 M 159.090183 -2.124348 L 159.090183 2.126628 M 198.861296 -2.124348 L 198.861296 2.126628 M 238.632408 -2.124348 L 238.632408 2.126628 " transform="matrix(0.997014, 0, 0, -0.997014, 43.568502, 128.09684)"/>
<path fill="none" stroke-width="0.19925" stroke-linecap="butt" stroke-linejoin="miter" stroke="rgb(50%, 50%, 50%)" stroke-opacity="1" stroke-miterlimit="10" d="M -2.125631 -0.00081864 L 2.125345 -0.00081864 M -2.125631 28.180997 L 2.125345 28.180997 M -2.125631 56.358895 L 2.125345 56.358895 M -2.125631 84.54071 L 2.125345 84.54071 M -2.125631 112.722526 L 2.125345 112.722526 " transform="matrix(0.997014, 0, 0, -0.997014, 43.568502, 128.09684)"/>
<path fill="none" stroke-width="0.3985" stroke-linecap="butt" stroke-linejoin="miter" stroke="rgb(0%, 0%, 0%)" stroke-opacity="1" stroke-miterlimit="10" d="M 0.00181631 -0.00081864 L 236.642089 -0.00081864 " transform="matrix(0.997014, 0, 0, -0.997014, 43.568502, 128.09684)"/>
<path fill-rule="nonzero" fill="rgb(0%, 0%, 0%)" fill-opacity="1" d="M 281.488281 128.097656 L 278.308594 126.507812 L 279.503906 128.097656 L 278.308594 129.6875 "/>
<path fill="none" stroke-width="0.3985" stroke-linecap="butt" stroke-linejoin="miter" stroke="rgb(0%, 0%, 0%)" stroke-opacity="1" stroke-miterlimit="10" d="M 0.00181631 -0.00081864 L 0.00181631 123.253976 " transform="matrix(0.997014, 0, 0, -0.997014, 43.568502, 128.09684)"/>
<path fill-rule="nonzero" fill="rgb(0%, 0%, 0%)" fill-opacity="1" d="M 43.570312 3.226562 L 41.980469 6.402344 L 43.570312 5.210938 L 45.15625 6.402344 "/>
<g fill="rgb(0%, 0%, 0%)" fill-opacity="1">
<use xlink:href="#glyph-0-0" x="41.08494" y="140.12581"/>
</g>
<g fill="rgb(0%, 0%, 0%)" fill-opacity="1">
<use xlink:href="#glyph-0-0" x="76.874741" y="140.12581"/>
</g>
<g fill="rgb(0%, 0%, 0%)" fill-opacity="1">
<use xlink:href="#glyph-1-0" x="81.841166" y="140.12581"/>
</g>
<g fill="rgb(0%, 0%, 0%)" fill-opacity="1">
<use xlink:href="#glyph-0-1" x="84.600511" y="140.12581"/>
</g>
<g fill="rgb(0%, 0%, 0%)" fill-opacity="1">
<use xlink:href="#glyph-0-2" x="120.390401" y="140.12581"/>
</g>
<g fill="rgb(0%, 0%, 0%)" fill-opacity="1">
<use xlink:href="#glyph-0-2" x="156.181199" y="140.12581"/>
</g>
<g fill="rgb(0%, 0%, 0%)" fill-opacity="1">
<use xlink:href="#glyph-1-0" x="161.147623" y="140.12581"/>
</g>
<g fill="rgb(0%, 0%, 0%)" fill-opacity="1">
<use xlink:href="#glyph-0-1" x="163.906969" y="140.12581"/>
</g>
<g fill="rgb(0%, 0%, 0%)" fill-opacity="1">
<use xlink:href="#glyph-0-3" x="199.696859" y="140.12581"/>
</g>
<g fill="rgb(0%, 0%, 0%)" fill-opacity="1">
<use xlink:href="#glyph-0-3" x="235.48666" y="140.12581"/>
</g>
<g fill="rgb(0%, 0%, 0%)" fill-opacity="1">
<use xlink:href="#glyph-1-0" x="240.453084" y="140.12581"/>
</g>
<g fill="rgb(0%, 0%, 0%)" fill-opacity="1">
<use xlink:href="#glyph-0-1" x="243.212429" y="140.12581"/>
</g>
<g fill="rgb(0%, 0%, 0%)" fill-opacity="1">
<use xlink:href="#glyph-0-4" x="279.002319" y="140.12581"/>
</g>
<g fill="rgb(0%, 0%, 0%)" fill-opacity="1">
<use xlink:href="#glyph-0-0" x="32.974234" y="131.297254"/>
</g>
<g fill="rgb(0%, 0%, 0%)" fill-opacity="1">
<use xlink:href="#glyph-0-5" x="28.007112" y="103.201408"/>
<use xlink:href="#glyph-0-1" x="32.973536" y="103.201408"/>
</g>
<g fill="rgb(0%, 0%, 0%)" fill-opacity="1">
<use xlink:href="#glyph-0-6" x="28.007112" y="75.105562"/>
<use xlink:href="#glyph-0-0" x="32.973536" y="75.105562"/>
</g>
<g fill="rgb(0%, 0%, 0%)" fill-opacity="1">
<use xlink:href="#glyph-0-2" x="23.040987" y="47.009716"/>
<use xlink:href="#glyph-0-4" x="28.007411" y="47.009716"/>
<use xlink:href="#glyph-0-1" x="32.973835" y="47.009716"/>
</g>
<g fill="rgb(0%, 0%, 0%)" fill-opacity="1">
<use xlink:href="#glyph-0-2" x="23.040987" y="18.91387"/>
<use xlink:href="#glyph-0-7" x="28.007411" y="18.91387"/>
<use xlink:href="#glyph-0-0" x="32.973835" y="18.91387"/>
</g>
<g clip-path="url(#clip-0)">
<path fill="none" stroke-width="0.79701" stroke-linecap="butt" stroke-linejoin="miter" stroke="rgb(0%, 0%, 100%)" stroke-opacity="1" stroke-miterlimit="10" d="M 0.00181631 112.722526 L 1.200709 109.400104 L 2.399602 106.14037 L 3.598495 102.994256 L 4.797387 99.926501 L 5.99628 96.96453 L 7.195173 94.088755 L 8.394066 91.291339 L 9.592958 88.587953 L 10.791851 85.947254 L 11.990744 83.400587 L 13.189637 80.916606 L 14.388529 78.518821 L 15.587422 76.183723 L 16.786315 73.915229 L 17.989126 71.729013 L 19.188018 69.601566 L 20.386911 67.525053 L 21.585804 65.519062 L 22.784697 63.579677 L 23.983589 61.683389 L 25.182482 59.857624 L 26.381375 58.074957 L 27.580268 56.351059 L 28.77916 54.682012 L 29.978053 53.056063 L 31.176946 51.481047 L 32.375839 49.94521 L 33.574731 48.472061 L 34.773624 47.026337 L 35.972517 45.627629 L 37.175328 44.275936 L 38.37422 42.955587 L 39.573113 41.682253 L 40.772006 40.440263 L 41.970899 39.249206 L 43.169791 38.073821 L 44.368684 36.945452 L 45.567577 35.852343 L 46.76647 34.782743 L 47.965362 33.75624 L 49.164255 32.753245 L 50.363148 31.769839 L 51.562041 30.837367 L 52.760933 29.908813 L 53.959826 29.031192 L 55.162637 28.165325 L 56.36153 27.330802 L 57.560422 26.515868 L 58.759315 25.72836 L 59.958208 24.960442 L 61.157101 24.216031 L 62.355993 23.506882 L 63.554886 22.809487 L 64.753779 22.131682 L 65.952672 21.46563 L 67.151564 20.83484 L 68.350457 20.215804 L 69.54935 19.616358 L 70.748243 19.032583 L 71.947135 18.468399 L 73.146028 17.915968 L 74.348839 17.387044 L 75.547732 16.865957 L 76.746624 16.372295 L 77.945517 15.874715 L 80.343303 14.950079 L 81.542195 14.511269 L 82.741088 14.06854 L 83.939981 13.653238 L 85.138874 13.245771 L 86.337766 12.850058 L 87.536659 12.481771 L 88.735552 12.109565 L 89.934445 11.749114 L 91.133337 11.396498 L 92.336148 11.059555 L 93.535041 10.730447 L 94.733934 10.413093 L 95.932826 10.103575 L 97.131719 9.801893 L 98.330612 9.511964 L 99.529505 9.229872 L 100.728397 8.955615 L 101.92729 8.689195 L 103.126183 8.43061 L 104.325076 8.179861 L 105.523969 7.936948 L 106.722861 7.701871 L 107.921754 7.47463 L 109.120647 7.251307 L 110.31954 7.03582 L 111.52235 6.828169 L 112.721243 6.624435 L 113.920136 6.428538 L 115.119028 6.236558 L 116.317921 6.052414 L 117.516814 5.872189 L 118.715707 5.695881 L 119.9146 5.527409 L 121.113492 5.362855 L 123.511278 5.049419 L 124.710171 4.900537 L 125.909063 4.755573 L 127.107956 4.614527 L 128.306849 4.477398 L 129.50966 4.344188 L 130.708552 4.214896 L 131.907445 4.089521 L 133.106338 3.968065 L 134.305231 3.850526 L 136.703016 3.623285 L 139.100802 3.411716 L 140.299694 3.309849 L 141.498587 3.211901 L 143.896373 3.023839 L 145.095265 2.933726 L 146.294158 2.847531 L 147.496969 2.761336 L 148.695862 2.682977 L 149.894754 2.6007 L 151.093647 2.522341 L 152.29254 2.4479 L 155.889218 2.236331 L 157.088111 2.169726 L 160.684789 1.981664 L 161.883682 1.922895 L 165.48036 1.758341 L 166.683171 1.707408 L 169.080956 1.605541 L 171.478742 1.51151 L 176.274313 1.33912 L 178.672098 1.260761 L 179.870991 1.2255 L 181.069884 1.18632 L 182.268777 1.151059 L 183.467669 1.119715 L 184.666562 1.084454 L 185.869373 1.05311 L 188.267158 0.990423 L 189.466051 0.962997 L 190.664944 0.931654 L 193.062729 0.876802 L 194.261622 0.853294 L 195.460515 0.825869 L 200.256086 0.731838 L 201.454979 0.712248 L 202.653871 0.688741 L 203.856682 0.669151 L 207.45336 0.610382 L 208.652253 0.59471 L 209.851146 0.57512 L 218.243395 0.465417 L 219.442288 0.453664 L 220.641181 0.437992 L 221.843991 0.426238 L 230.236241 0.343961 L 231.435133 0.336125 L 232.634026 0.324371 L 233.832919 0.316535 L 235.031812 0.304781 L 238.62849 0.281274 " transform="matrix(0.997014, 0, 0, -0.997014, 43.568502, 128.09684)"/>
</g>
<g clip-path="url(#clip-1)">
<path fill="none" stroke-width="0.3985" stroke-linecap="butt" stroke-linejoin="miter" stroke="rgb(100%, 0%, 0%)" stroke-opacity="1" stroke-dasharray="2.98883 2.98883" stroke-miterlimit="10" d="M 0.00181631 112.722526 L 0.201632 112.154423 L 0.401447 111.590238 L 0.801078 110.454033 L 1.000894 109.889848 L 1.200709 109.321745 L 1.400525 108.75756 L 1.60034 108.189458 L 1.800155 107.625273 L 2.199786 106.489067 L 2.399602 105.924882 L 2.599417 105.35678 L 2.799233 104.792595 L 2.999048 104.224492 L 3.198864 103.660307 L 3.598495 102.524102 L 3.79831 101.959917 L 3.998125 101.391814 L 4.197941 100.827629 L 4.597572 99.691424 L 4.797387 99.127239 L 4.997203 98.559136 L 5.197018 97.994951 L 5.396834 97.426848 L 5.596649 96.862664 L 5.99628 95.726458 L 6.196096 95.162273 L 6.395911 94.594171 L 6.595726 94.029986 L 6.795542 93.461883 L 6.995357 92.897698 L 7.394988 91.761493 L 7.594804 91.197308 L 7.794619 90.629205 L 7.994435 90.06502 L 8.19425 89.496917 L 8.394066 88.932732 L 8.793697 87.796527 L 8.993512 87.232342 L 9.193327 86.664239 L 9.393143 86.100055 L 9.592958 85.531952 L 9.792774 84.967767 L 10.192405 83.831561 L 10.39222 83.267377 L 10.592036 82.699274 L 10.791851 82.135089 L 10.991667 81.566986 L 11.191482 81.002801 L 11.591113 79.866596 L 11.790928 79.302411 L 11.990744 78.734308 L 12.190559 78.170123 L 12.59019 77.033918 L 12.790006 76.469733 L 12.989821 75.90163 L 13.189637 75.337445 L 13.389452 74.769343 L 13.589268 74.205158 L 13.988898 73.068952 L 14.188714 72.504767 L 14.388529 71.936665 L 14.588345 71.37248 L 14.78816 70.804377 L 14.987976 70.240192 L 15.387607 69.103987 L 15.587422 68.539802 L 15.787238 67.971699 L 15.987053 67.407514 L 16.186869 66.839411 L 16.386684 66.275227 L 16.786315 65.139021 L 16.98613 64.574836 L 17.189864 64.006733 L 17.389679 63.442549 L 17.589495 62.874446 L 17.78931 62.310261 L 18.188941 61.174055 L 18.388757 60.609871 L 18.588572 60.041768 L 18.788387 59.477583 L 19.188018 58.341377 L 19.387834 57.777193 L 19.587649 57.20909 L 19.787465 56.644905 L 19.98728 56.076802 L 20.187096 55.512617 L 20.586727 54.376412 L 20.786542 53.812227 L 20.986357 53.244124 L 21.186173 52.679939 L 21.385988 52.111837 L 21.585804 51.547652 L 21.985435 50.411446 L 22.18525 49.847262 L 22.385066 49.279159 L 22.584881 48.714974 L 22.784697 48.146871 L 22.984512 47.582686 L 23.384143 46.446481 L 23.583958 45.882296 L 23.783774 45.314193 L 23.983589 44.750008 L 24.183405 44.181906 L 24.38322 43.617721 L 24.782851 42.481515 L 24.982667 41.91733 L 25.182482 41.349228 L 25.382298 40.785043 L 25.582113 40.21694 L 25.781928 39.652755 L 26.181559 38.51655 L 26.381375 37.952365 L 26.58119 37.384262 L 26.781006 36.820077 L 27.180637 35.683872 L 27.380452 35.119687 L 27.580268 34.551584 L 27.780083 33.987399 L 27.979899 33.419296 L 28.179714 32.855112 L 28.579345 31.718906 L 28.77916 31.154721 L 28.978976 30.586618 L 29.178791 30.022434 L 29.378607 29.454331 L 29.578422 28.890146 L 29.978053 27.75394 L 30.177869 27.189756 L 30.377684 26.621653 L 30.5775 26.057468 L 30.777315 25.489365 L 30.97713 24.92518 L 31.376761 23.788975 L 31.576577 23.22479 L 31.776392 22.656687 L 31.976208 22.092502 L 32.176023 21.5244 L 32.375839 20.960215 L 32.77547 19.824009 L 32.975285 19.259824 L 33.1751 18.691722 L 33.374916 18.127537 L 33.574731 17.559434 L 33.774547 16.995249 L 34.174178 15.859044 L 34.373993 15.294859 L 34.573809 14.726756 L 34.777542 14.162571 L 35.177173 13.026366 L 35.376988 12.462181 L 35.576804 11.894078 L 35.776619 11.329893 L 35.976435 10.761791 L 36.17625 10.197606 L 36.575881 9.0614 L 36.775697 8.497215 L 36.975512 7.929113 L 37.175328 7.364928 L 37.375143 6.796825 L 37.574959 6.23264 L 37.974589 5.096435 L 38.174405 4.53225 L 38.37422 3.964147 L 38.574036 3.399962 L 38.773851 2.831859 L 38.973667 2.267675 L 39.373298 1.131469 L 39.573113 0.567284 L 39.772929 -0.00081864 " transform="matrix(0.997014, 0, 0, -0.997014, 43.568502, 128.09684)"/>
</g>
<g fill="rgb(100%, 0%, 0%)" fill-opacity="1">
<use xlink:href="#glyph-0-8" x="87.662429" y="36.926916"/>
</g>
<g fill="rgb(100%, 0%, 0%)" fill-opacity="1">
<use xlink:href="#glyph-1-1" x="91.525314" y="36.926916"/>
</g>
<g fill="rgb(100%, 0%, 0%)" fill-opacity="1">
<use xlink:href="#glyph-0-9" x="98.710737" y="36.926916"/>
</g>
<g fill="rgb(0%, 0%, 0%)" fill-opacity="1">
<use xlink:href="#glyph-1-2" x="149.118354" y="154.394073"/>
</g>
<g fill="rgb(0%, 0%, 0%)" fill-opacity="1">
<use xlink:href="#glyph-0-8" x="156.012744" y="154.394073"/>
<use xlink:href="#glyph-0-10" x="159.875629" y="154.394073"/>
<use xlink:href="#glyph-0-11" x="168.152672" y="154.394073"/>
<use xlink:href="#glyph-0-9" x="172.070187" y="154.394073"/>
</g>
<g fill="rgb(0%, 0%, 0%)" fill-opacity="1">
<use xlink:href="#glyph-2-0" x="13.739846" y="82.523344"/>
</g>
<g fill="rgb(0%, 0%, 0%)" fill-opacity="1">
<use xlink:href="#glyph-3-0" x="15.229384" y="75.191305"/>
</g>
<g fill="rgb(0%, 0%, 0%)" fill-opacity="1">
<use xlink:href="#glyph-4-0" x="13.739846" y="67.615995"/>
</g>
<g fill="rgb(0%, 0%, 0%)" fill-opacity="1">
<use xlink:href="#glyph-2-1" x="13.739846" y="63.75311"/>
</g>
<g fill="rgb(0%, 0%, 0%)" fill-opacity="1">
<use xlink:href="#glyph-4-1" x="13.739846" y="57.767576"/>
<use xlink:href="#glyph-4-2" x="13.739846" y="52.663085"/>
</g>
</svg>
