<?xml version="1.0" encoding="UTF-8"?>
<svg xmlns="http://www.w3.org/2000/svg" xmlns:xlink="http://www.w3.org/1999/xlink" width="280.902pt" height="122.752pt" viewBox="0 0 280.902 122.752">
<defs>
<g>
<g id="glyph-0-0">
<path d="M 0.765625 -3.109375 C 0.890625 -3.171875 1.015625 -3.28125 1.15625 -3.34375 C 1.46875 -3.515625 1.828125 -3.578125 2.1875 -3.578125 C 2.765625 -3.578125 2.9375 -2.9375 2.9375 -2.484375 L 2.9375 -2.21875 C 2 -2.21875 0.390625 -2.015625 0.390625 -1.03125 C 0.390625 -0.46875 0.796875 0.09375 1.4375 0.09375 C 1.953125 0.09375 2.546875 -0.015625 2.96875 -0.34375 L 2.96875 -0.015625 L 3.6875 -0.015625 L 3.6875 -2.140625 C 3.6875 -2.28125 3.703125 -2.40625 3.703125 -2.546875 C 3.703125 -3.359375 3.140625 -4.140625 2.171875 -4.140625 C 1.734375 -4.140625 1.296875 -4.046875 0.890625 -3.84375 C 0.8125 -3.8125 0.703125 -3.765625 0.703125 -3.671875 C 0.703125 -3.484375 0.75 -3.296875 0.765625 -3.109375 Z M 2.9375 -1.734375 L 2.9375 -1.296875 C 2.9375 -0.765625 2.515625 -0.5 1.921875 -0.5 C 1.609375 -0.5 1.09375 -0.625 1.09375 -1.078125 C 1.109375 -1.5 1.84375 -1.625 2.15625 -1.671875 C 2.40625 -1.703125 2.671875 -1.734375 2.9375 -1.734375 Z M 2.9375 -1.734375 "/>
</g>
<g id="glyph-0-1">
<path d="M 1.421875 -3.234375 L 1.421875 -4.03125 L 0.734375 -4.03125 L 0.734375 -0.015625 L 1.453125 -0.015625 L 1.453125 -1.796875 C 1.453125 -2.6875 2.015625 -3.4375 3.015625 -3.4375 L 3.015625 -4.078125 C 2.40625 -4.078125 1.671875 -3.75 1.421875 -3.234375 Z M 1.421875 -3.234375 "/>
</g>
<g id="glyph-0-2">
<path d="M 0.734375 -6.5 L 0.734375 -0.015625 L 1.484375 -0.015625 L 1.484375 -0.421875 C 1.828125 -0.09375 2.28125 0.09375 2.75 0.09375 C 3.84375 0.09375 4.4375 -1.0625 4.4375 -2.015625 C 4.4375 -2.84375 4.015625 -4.078125 2.921875 -4.078125 C 2.421875 -4.078125 1.859375 -3.90625 1.453125 -3.5625 L 1.453125 -6.5 Z M 3.671875 -1.859375 C 3.609375 -1.140625 3.15625 -0.5 2.375 -0.5 C 2.015625 -0.5 1.484375 -0.78125 1.484375 -1.140625 L 1.484375 -2.96875 C 1.546875 -3.265625 2.109375 -3.5 2.453125 -3.5 C 3.296875 -3.5 3.6875 -2.71875 3.6875 -2.046875 C 3.6875 -1.984375 3.6875 -1.921875 3.671875 -1.859375 Z M 3.671875 -1.859375 "/>
</g>
<g id="glyph-0-3">
<path d="M 3.71875 -0.96875 C 3.578125 -0.890625 3.453125 -0.78125 3.296875 -0.71875 C 3.015625 -0.578125 2.6875 -0.5 2.375 -0.5 C 1.671875 -0.5 0.96875 -1.078125 0.96875 -1.96875 L 3.828125 -1.96875 C 3.828125 -2.890625 3.53125 -4.140625 2.1875 -4.140625 C 1.03125 -4.140625 0.296875 -3.0625 0.296875 -1.984375 L 0.296875 -1.953125 C 0.3125 -0.875 1.203125 0.09375 2.328125 0.09375 C 2.796875 0.09375 3.265625 -0.046875 3.65625 -0.265625 C 3.703125 -0.3125 3.78125 -0.328125 3.78125 -0.421875 C 3.78125 -0.59375 3.734375 -0.78125 3.71875 -0.96875 Z M 1.03125 -2.5 C 1.203125 -3.015625 1.546875 -3.546875 2.171875 -3.546875 C 2.796875 -3.546875 3.15625 -3.078125 3.28125 -2.5 Z M 1.03125 -2.5 "/>
</g>
<g id="glyph-0-4">
<path d="M 1.4375 -3.40625 L 1.4375 -4.03125 L 0.71875 -4.03125 L 0.71875 -0.015625 L 1.484375 -0.015625 L 1.484375 -2.03125 C 1.484375 -2.59375 1.578125 -3.5 2.375 -3.5 C 2.625 -3.5 2.921875 -3.453125 3.09375 -3.234375 C 3.265625 -3.046875 3.28125 -2.796875 3.28125 -2.5625 C 3.28125 -2.4375 3.28125 -2.34375 3.28125 -2.234375 L 3.28125 -0.015625 L 4.03125 -0.015625 L 4.03125 -2.03125 C 4.03125 -2.59375 4.140625 -3.5 4.9375 -3.5 C 5.1875 -3.5 5.484375 -3.453125 5.65625 -3.234375 C 5.8125 -3.046875 5.84375 -2.796875 5.84375 -2.5625 C 5.84375 -2.4375 5.828125 -2.34375 5.828125 -2.234375 L 5.828125 -0.015625 L 6.578125 -0.015625 L 6.578125 -2.5625 C 6.578125 -2.890625 6.5625 -3.234375 6.40625 -3.53125 C 6.203125 -3.9375 5.765625 -4.078125 5.328125 -4.078125 C 4.8125 -4.078125 4.140625 -3.78125 3.9375 -3.34375 C 3.71875 -3.859375 3.34375 -4.078125 2.765625 -4.078125 C 2.265625 -4.078125 1.6875 -3.84375 1.4375 -3.40625 Z M 1.4375 -3.40625 "/>
</g>
<g id="glyph-0-5">
<path d="M 2.171875 -4.140625 C 1 -4.015625 0.265625 -3.03125 0.265625 -1.984375 C 0.265625 -0.90625 1.09375 0.09375 2.296875 0.09375 C 3.40625 0.09375 4.328125 -0.828125 4.328125 -1.984375 C 4.328125 -3.078125 3.5 -4.140625 2.28125 -4.140625 C 2.234375 -4.140625 2.203125 -4.140625 2.171875 -4.140625 Z M 1.015625 -1.9375 C 1.015625 -1.984375 1 -2.03125 1 -2.09375 C 1 -2.84375 1.484375 -3.546875 2.296875 -3.546875 C 3.109375 -3.546875 3.578125 -2.859375 3.578125 -2.0625 C 3.578125 -1.296875 3.140625 -0.53125 2.296875 -0.53125 C 1.53125 -0.53125 1.09375 -1.125 1.015625 -1.9375 Z M 1.015625 -1.9375 "/>
</g>
<g id="glyph-0-6">
<path d="M 0.953125 -5.125 L 0.953125 -3.984375 L 0.171875 -3.984375 L 0.171875 -3.421875 L 0.9375 -3.421875 L 0.9375 -1.84375 C 0.9375 -1.671875 0.921875 -1.5 0.921875 -1.328125 C 0.921875 -0.921875 0.921875 0.09375 1.671875 0.09375 C 2.171875 0.09375 2.609375 -0.046875 3.0625 -0.234375 L 2.90625 -0.8125 C 2.65625 -0.640625 2.40625 -0.515625 2.09375 -0.515625 C 1.703125 -0.515625 1.625 -0.953125 1.625 -1.296875 L 1.625 -3.421875 L 2.90625 -3.421875 L 2.90625 -3.984375 L 1.625 -3.984375 L 1.625 -5.125 Z M 0.953125 -5.125 "/>
</g>
<g id="glyph-0-7">
<path d="M 0.71875 -3.984375 L 0.71875 -1.0625 C 0.71875 -0.765625 0.71875 -0.4375 0.921875 -0.203125 C 1.09375 0.03125 1.390625 0.09375 1.671875 0.09375 C 2.234375 0.09375 2.890625 -0.0625 3.296875 -0.4375 L 3.296875 -0.015625 L 4.015625 -0.015625 L 4.015625 -3.984375 L 3.265625 -3.984375 L 3.265625 -1.484375 C 3.265625 -1.296875 3.265625 -1.125 3.171875 -0.953125 C 2.96875 -0.59375 2.578125 -0.4375 2.1875 -0.4375 C 1.859375 -0.4375 1.484375 -0.453125 1.484375 -1.015625 L 1.484375 -3.984375 Z M 0.71875 -3.984375 "/>
</g>
<g id="glyph-0-8">
<path d="M 3.765625 -0.96875 C 3.234375 -0.6875 2.90625 -0.515625 2.296875 -0.515625 L 2.21875 -0.515625 C 1.4375 -0.578125 1.0625 -1.328125 1.0625 -2 C 1.0625 -2.75 1.484375 -3.53125 2.328125 -3.53125 C 2.75 -3.53125 3.109375 -3.453125 3.484375 -3.21875 C 3.546875 -3.1875 3.609375 -3.140625 3.671875 -3.109375 C 3.703125 -3.296875 3.765625 -3.515625 3.765625 -3.6875 C 3.765625 -4.03125 2.421875 -4.140625 2.328125 -4.140625 C 1.1875 -4.140625 0.3125 -3.140625 0.3125 -2.0625 C 0.3125 -0.9375 1.09375 0.09375 2.34375 0.09375 C 2.828125 0.09375 3.265625 -0.046875 3.6875 -0.265625 C 3.75 -0.296875 3.828125 -0.328125 3.828125 -0.40625 C 3.828125 -0.59375 3.78125 -0.78125 3.765625 -0.96875 Z M 3.765625 -0.96875 "/>
</g>
<g id="glyph-0-9">
<path d="M 1.453125 -3.5625 L 1.453125 -3.984375 L 0.734375 -3.984375 L 0.734375 1.734375 L 1.484375 1.734375 L 1.484375 -0.421875 C 1.828125 -0.09375 2.28125 0.09375 2.75 0.09375 C 3.84375 0.09375 4.4375 -1.0625 4.4375 -2.015625 C 4.4375 -2.75 4.078125 -4.09375 2.984375 -4.09375 C 2.40625 -4.09375 1.921875 -3.875 1.453125 -3.5625 Z M 3.671875 -1.875 C 3.609375 -1.1875 3.109375 -0.5 2.359375 -0.5 C 2.015625 -0.5 1.484375 -0.78125 1.484375 -1.140625 L 1.484375 -2.953125 C 1.53125 -3.203125 2.0625 -3.46875 2.4375 -3.46875 C 3.203125 -3.46875 3.6875 -2.703125 3.6875 -2.03125 C 3.6875 -1.984375 3.6875 -1.921875 3.671875 -1.875 Z M 3.671875 -1.875 "/>
</g>
<g id="glyph-0-10">
<path d="M 0.734375 -6.5 L 0.734375 -0.015625 L 1.453125 -0.015625 L 1.453125 -6.5 Z M 0.734375 -6.5 "/>
</g>
<g id="glyph-0-11">
<path d="M 0.046875 -3.984375 L 1.78125 -2.0625 L 0 -0.015625 L 0.765625 -0.015625 L 2.09375 -1.6875 L 3.453125 -0.015625 L 4.234375 -0.015625 L 2.40625 -2.046875 L 4.078125 -3.984375 L 3.3125 -3.984375 L 2.09375 -2.53125 L 0.828125 -3.96875 L 0.59375 -3.984375 Z M 0.046875 -3.984375 "/>
</g>
<g id="glyph-0-12">
<path d="M 0.359375 -0.953125 C 0.328125 -0.8125 0.3125 -0.640625 0.28125 -0.5 C 0.28125 -0.453125 0.265625 -0.40625 0.265625 -0.359375 C 0.265625 -0.140625 1.1875 0.03125 1.328125 0.046875 C 1.5 0.09375 1.671875 0.09375 1.828125 0.09375 C 2.515625 0.09375 3.3125 -0.171875 3.3125 -1.171875 L 3.3125 -1.25 C 3.265625 -1.796875 2.8125 -2.21875 2.296875 -2.375 C 1.875 -2.5 0.984375 -2.4375 0.984375 -3.046875 C 0.984375 -3.4375 1.375 -3.578125 1.703125 -3.578125 C 2 -3.578125 2.3125 -3.53125 2.609375 -3.421875 C 2.75 -3.375 2.90625 -3.28125 3.046875 -3.21875 L 3.15625 -3.84375 C 2.71875 -4.03125 2.296875 -4.140625 1.8125 -4.140625 C 1.125 -4.140625 0.296875 -3.84375 0.296875 -2.96875 C 0.296875 -2.390625 0.75 -1.984375 1.265625 -1.8125 C 1.640625 -1.703125 2.625 -1.71875 2.625 -1.078125 C 2.625 -0.6875 2.21875 -0.515625 1.859375 -0.515625 C 1.3125 -0.515625 0.875 -0.65625 0.359375 -0.953125 Z M 0.359375 -0.953125 "/>
</g>
<g id="glyph-0-13">
<path d="M 1.4375 -3.40625 L 1.4375 -4.03125 L 0.71875 -4.03125 L 0.71875 -0.015625 L 1.484375 -0.015625 L 1.484375 -2.046875 C 1.484375 -2.59375 1.578125 -3.5 2.375 -3.5 C 2.96875 -3.5 3.28125 -3.171875 3.28125 -2.5625 C 3.28125 -2.453125 3.265625 -2.34375 3.265625 -2.234375 L 3.265625 -0.015625 L 4.015625 -0.015625 L 4.015625 -2.5625 C 4.015625 -2.890625 4 -3.21875 3.859375 -3.515625 C 3.65625 -3.921875 3.21875 -4.09375 2.78125 -4.09375 C 2.28125 -4.09375 1.6875 -3.84375 1.4375 -3.40625 Z M 1.4375 -3.40625 "/>
</g>
</g>
</defs>
<path fill-rule="nonzero" fill="rgb(87.998962%, 87.998962%, 100%)" fill-opacity="1" stroke-width="0.79701" stroke-linecap="butt" stroke-linejoin="miter" stroke="rgb(0%, 0%, 0%)" stroke-opacity="1" stroke-miterlimit="10" d="M -119.055367 -7.085624 L -119.055367 7.087484 L -28.345128 7.087484 L -28.345128 -7.085624 Z M -119.055367 -7.085624 " transform="matrix(0.997984, 0, 0, -0.997984, 130.717665, 51.272413)"/>
<g fill="rgb(0%, 0%, 0%)" fill-opacity="1">
<use xlink:href="#glyph-0-0" x="21.206913" y="36.129007"/>
</g>
<g fill="rgb(0%, 0%, 0%)" fill-opacity="1">
<use xlink:href="#glyph-0-1" x="25.365198" y="36.129007"/>
<use xlink:href="#glyph-0-2" x="28.506059" y="36.129007"/>
</g>
<g fill="rgb(0%, 0%, 0%)" fill-opacity="1">
<use xlink:href="#glyph-0-1" x="33.00438" y="36.129007"/>
<use xlink:href="#glyph-0-3" x="36.145241" y="36.129007"/>
</g>
<g fill="rgb(0%, 0%, 0%)" fill-opacity="1">
<use xlink:href="#glyph-0-4" x="43.292265" y="36.129007"/>
<use xlink:href="#glyph-0-5" x="50.595885" y="36.129007"/>
<use xlink:href="#glyph-0-6" x="55.193532" y="36.129007"/>
<use xlink:href="#glyph-0-3" x="58.514254" y="36.129007"/>
<use xlink:href="#glyph-0-7" x="62.600953" y="36.129007"/>
<use xlink:href="#glyph-0-1" x="67.349827" y="36.129007"/>
</g>
<path fill-rule="nonzero" fill="rgb(100%, 92.498779%, 84.999084%)" fill-opacity="1" stroke-width="0.79701" stroke-linecap="butt" stroke-linejoin="miter" stroke="rgb(0%, 0%, 0%)" stroke-opacity="1" stroke-miterlimit="10" d="M 28.347303 -7.085624 L 28.347303 7.087484 L 119.057543 7.087484 L 119.057543 -7.085624 Z M 28.347303 -7.085624 " transform="matrix(0.997984, 0, 0, -0.997984, 130.717665, 51.272413)"/>
<g fill="rgb(0%, 0%, 0%)" fill-opacity="1">
<use xlink:href="#glyph-0-0" x="186.818323" y="35.259764"/>
</g>
<g fill="rgb(0%, 0%, 0%)" fill-opacity="1">
<use xlink:href="#glyph-0-1" x="190.976607" y="35.259764"/>
<use xlink:href="#glyph-0-2" x="194.117468" y="35.259764"/>
</g>
<g fill="rgb(0%, 0%, 0%)" fill-opacity="1">
<use xlink:href="#glyph-0-1" x="198.615789" y="35.259764"/>
<use xlink:href="#glyph-0-3" x="201.75665" y="35.259764"/>
</g>
<g fill="rgb(0%, 0%, 0%)" fill-opacity="1">
<use xlink:href="#glyph-0-1" x="208.903675" y="35.259764"/>
<use xlink:href="#glyph-0-3" x="212.044535" y="35.259764"/>
<use xlink:href="#glyph-0-8" x="216.131234" y="35.259764"/>
<use xlink:href="#glyph-0-3" x="220.217932" y="35.259764"/>
<use xlink:href="#glyph-0-9" x="224.304631" y="35.259764"/>
<use xlink:href="#glyph-0-6" x="229.053505" y="35.259764"/>
<use xlink:href="#glyph-0-3" x="232.374227" y="35.259764"/>
<use xlink:href="#glyph-0-7" x="236.460925" y="35.259764"/>
<use xlink:href="#glyph-0-1" x="241.209799" y="35.259764"/>
</g>
<path fill-rule="nonzero" fill="rgb(81.999207%, 81.999207%, 100%)" fill-opacity="1" stroke-width="0.79701" stroke-linecap="butt" stroke-linejoin="miter" stroke="rgb(0%, 0%, 0%)" stroke-opacity="1" stroke-miterlimit="10" d="M -28.345128 -39.686512 L -28.345128 39.684458 L -15.58894 39.684458 L -15.58894 -39.686512 Z M -28.345128 -39.686512 " transform="matrix(0.997984, 0, 0, -0.997984, 130.717665, 51.272413)"/>
<path fill-rule="nonzero" fill="rgb(100%, 88.999939%, 77.999878%)" fill-opacity="1" stroke-width="0.79701" stroke-linecap="butt" stroke-linejoin="miter" stroke="rgb(0%, 0%, 0%)" stroke-opacity="1" stroke-miterlimit="10" d="M 15.591115 -39.686512 L 15.591115 39.684458 L 28.347303 39.684458 L 28.347303 -39.686512 Z M 15.591115 -39.686512 " transform="matrix(0.997984, 0, 0, -0.997984, 130.717665, 51.272413)"/>
<path fill="none" stroke-width="0.3985" stroke-linecap="butt" stroke-linejoin="miter" stroke="rgb(0%, 0%, 0%)" stroke-opacity="1" stroke-dasharray="2.98883 2.98883" stroke-miterlimit="10" d="M 0.00108761 -48.188028 L 0.00108761 48.189888 " transform="matrix(0.997984, 0, 0, -0.997984, 130.717665, 51.272413)"/>
<path fill="none" stroke-width="1.19553" stroke-linecap="butt" stroke-linejoin="miter" stroke="rgb(0%, 0%, 0%)" stroke-opacity="1" stroke-miterlimit="10" d="M -15.58894 29.766022 L 15.591115 29.766022 " transform="matrix(0.997984, 0, 0, -0.997984, 130.717665, 51.272413)"/>
<path fill-rule="nonzero" fill="rgb(69.999695%, 69.999695%, 69.999695%)" fill-opacity="1" stroke-width="0.3985" stroke-linecap="butt" stroke-linejoin="miter" stroke="rgb(0%, 0%, 0%)" stroke-opacity="1" stroke-miterlimit="10" d="M -21.260531 26.92827 L -21.260531 32.599861 L -15.58894 32.599861 L -15.58894 26.92827 Z M -21.260531 26.92827 " transform="matrix(0.997984, 0, 0, -0.997984, 130.717665, 51.272413)"/>
<path fill-rule="nonzero" fill="rgb(69.999695%, 69.999695%, 69.999695%)" fill-opacity="1" stroke-width="0.3985" stroke-linecap="butt" stroke-linejoin="miter" stroke="rgb(0%, 0%, 0%)" stroke-opacity="1" stroke-miterlimit="10" d="M 15.591115 26.92827 L 15.591115 32.599861 L 21.258792 32.599861 L 21.258792 26.92827 Z M 15.591115 26.92827 " transform="matrix(0.997984, 0, 0, -0.997984, 130.717665, 51.272413)"/>
<path fill="none" stroke-width="1.19553" stroke-linecap="butt" stroke-linejoin="miter" stroke="rgb(0%, 0%, 0%)" stroke-opacity="1" stroke-miterlimit="10" d="M -15.58894 12.755162 L 15.591115 12.755162 " transform="matrix(0.997984, 0, 0, -0.997984, 130.717665, 51.272413)"/>
<path fill-rule="nonzero" fill="rgb(69.999695%, 69.999695%, 69.999695%)" fill-opacity="1" stroke-width="0.3985" stroke-linecap="butt" stroke-linejoin="miter" stroke="rgb(0%, 0%, 0%)" stroke-opacity="1" stroke-miterlimit="10" d="M -21.260531 9.921323 L -21.260531 15.589 L -15.58894 15.589 L -15.58894 9.921323 Z M -21.260531 9.921323 " transform="matrix(0.997984, 0, 0, -0.997984, 130.717665, 51.272413)"/>
<path fill-rule="nonzero" fill="rgb(69.999695%, 69.999695%, 69.999695%)" fill-opacity="1" stroke-width="0.3985" stroke-linecap="butt" stroke-linejoin="miter" stroke="rgb(0%, 0%, 0%)" stroke-opacity="1" stroke-miterlimit="10" d="M 15.591115 9.921323 L 15.591115 15.589 L 21.258792 15.589 L 21.258792 9.921323 Z M 15.591115 9.921323 " transform="matrix(0.997984, 0, 0, -0.997984, 130.717665, 51.272413)"/>
<path fill="none" stroke-width="1.19553" stroke-linecap="butt" stroke-linejoin="miter" stroke="rgb(0%, 0%, 0%)" stroke-opacity="1" stroke-miterlimit="10" d="M -15.58894 -12.757215 L 15.591115 -12.757215 " transform="matrix(0.997984, 0, 0, -0.997984, 130.717665, 51.272413)"/>
<path fill-rule="nonzero" fill="rgb(69.999695%, 69.999695%, 69.999695%)" fill-opacity="1" stroke-width="0.3985" stroke-linecap="butt" stroke-linejoin="miter" stroke="rgb(0%, 0%, 0%)" stroke-opacity="1" stroke-miterlimit="10" d="M -21.260531 -15.591054 L -21.260531 -9.919463 L -15.58894 -9.919463 L -15.58894 -15.591054 Z M -21.260531 -15.591054 " transform="matrix(0.997984, 0, 0, -0.997984, 130.717665, 51.272413)"/>
<path fill-rule="nonzero" fill="rgb(69.999695%, 69.999695%, 69.999695%)" fill-opacity="1" stroke-width="0.3985" stroke-linecap="butt" stroke-linejoin="miter" stroke="rgb(0%, 0%, 0%)" stroke-opacity="1" stroke-miterlimit="10" d="M 15.591115 -15.591054 L 15.591115 -9.919463 L 21.258792 -9.919463 L 21.258792 -15.591054 Z M 15.591115 -15.591054 " transform="matrix(0.997984, 0, 0, -0.997984, 130.717665, 51.272413)"/>
<path fill="none" stroke-width="1.19553" stroke-linecap="butt" stroke-linejoin="miter" stroke="rgb(0%, 0%, 0%)" stroke-opacity="1" stroke-miterlimit="10" d="M -15.58894 -29.764162 L 15.591115 -29.764162 " transform="matrix(0.997984, 0, 0, -0.997984, 130.717665, 51.272413)"/>
<path fill-rule="nonzero" fill="rgb(69.999695%, 69.999695%, 69.999695%)" fill-opacity="1" stroke-width="0.3985" stroke-linecap="butt" stroke-linejoin="miter" stroke="rgb(0%, 0%, 0%)" stroke-opacity="1" stroke-miterlimit="10" d="M -21.260531 -32.598001 L -21.260531 -26.930323 L -15.58894 -26.930323 L -15.58894 -32.598001 Z M -21.260531 -32.598001 " transform="matrix(0.997984, 0, 0, -0.997984, 130.717665, 51.272413)"/>
<path fill-rule="nonzero" fill="rgb(69.999695%, 69.999695%, 69.999695%)" fill-opacity="1" stroke-width="0.3985" stroke-linecap="butt" stroke-linejoin="miter" stroke="rgb(0%, 0%, 0%)" stroke-opacity="1" stroke-miterlimit="10" d="M 15.591115 -32.598001 L 15.591115 -26.930323 L 21.258792 -26.930323 L 21.258792 -32.598001 Z M 15.591115 -32.598001 " transform="matrix(0.997984, 0, 0, -0.997984, 130.717665, 51.272413)"/>
<g fill="rgb(0%, 0%, 0%)" fill-opacity="1">
<use xlink:href="#glyph-0-9" x="70.592138" y="114.468735"/>
<use xlink:href="#glyph-0-10" x="75.341012" y="114.468735"/>
<use xlink:href="#glyph-0-0" x="77.536036" y="114.468735"/>
<use xlink:href="#glyph-0-6" x="81.953822" y="114.468735"/>
<use xlink:href="#glyph-0-3" x="85.274544" y="114.468735"/>
<use xlink:href="#glyph-0-0" x="89.361242" y="114.468735"/>
<use xlink:href="#glyph-0-7" x="93.779029" y="114.468735"/>
<use xlink:href="#glyph-0-11" x="98.527903" y="114.468735"/>
</g>
<g fill="rgb(0%, 0%, 0%)" fill-opacity="1">
<use xlink:href="#glyph-0-0" x="105.835102" y="114.468735"/>
<use xlink:href="#glyph-0-12" x="110.252888" y="114.468735"/>
<use xlink:href="#glyph-0-12" x="113.777632" y="114.468735"/>
<use xlink:href="#glyph-0-3" x="117.302376" y="114.468735"/>
<use xlink:href="#glyph-0-4" x="121.389074" y="114.468735"/>
<use xlink:href="#glyph-0-2" x="128.692694" y="114.468735"/>
<use xlink:href="#glyph-0-10" x="133.441568" y="114.468735"/>
<use xlink:href="#glyph-0-3" x="135.636592" y="114.468735"/>
<use xlink:href="#glyph-0-12" x="139.72329" y="114.468735"/>
</g>
<g fill="rgb(0%, 0%, 0%)" fill-opacity="1">
<use xlink:href="#glyph-0-9" x="146.30836" y="114.468735"/>
<use xlink:href="#glyph-0-0" x="151.057234" y="114.468735"/>
</g>
<g fill="rgb(0%, 0%, 0%)" fill-opacity="1">
<use xlink:href="#glyph-0-1" x="155.224467" y="114.468735"/>
</g>
<g fill="rgb(0%, 0%, 0%)" fill-opacity="1">
<use xlink:href="#glyph-0-2" x="161.425654" y="114.468735"/>
</g>
<g fill="rgb(0%, 0%, 0%)" fill-opacity="1">
<use xlink:href="#glyph-0-5" x="166.434029" y="114.468735"/>
<use xlink:href="#glyph-0-7" x="171.031677" y="114.468735"/>
<use xlink:href="#glyph-0-10" x="175.780551" y="114.468735"/>
<use xlink:href="#glyph-0-5" x="177.975574" y="114.468735"/>
<use xlink:href="#glyph-0-13" x="182.573222" y="114.468735"/>
<use xlink:href="#glyph-0-12" x="187.322096" y="114.468735"/>
</g>
<path fill="none" stroke-width="0.3985" stroke-linecap="butt" stroke-linejoin="miter" stroke="rgb(0%, 0%, 0%)" stroke-opacity="1" stroke-dasharray="2.98883 1.99255 0.3985 1.99255" stroke-miterlimit="10" d="M -127.560798 -0.00102695 L 127.559059 -0.00102695 " transform="matrix(0.997984, 0, 0, -0.997984, 130.717665, 51.272413)"/>
<g fill="rgb(0%, 0%, 0%)" fill-opacity="1">
<use xlink:href="#glyph-0-0" x="261.531377" y="53.247422"/>
<use xlink:href="#glyph-0-11" x="265.949164" y="53.247422"/>
<use xlink:href="#glyph-0-3" x="270.187089" y="53.247422"/>
</g>
</svg>
