<?xml version="1.0" encoding="UTF-8"?>
<svg xmlns="http://www.w3.org/2000/svg" xmlns:xlink="http://www.w3.org/1999/xlink" width="230.686pt" height="179.32pt" viewBox="0 0 230.686 179.32">
<defs>
<g>
<g id="glyph-0-0">
<path d="M 1.625 -1.046875 C 1.1875 -0.328125 0.796875 -0.296875 0.4375 -0.28125 C 0.375 -0.265625 0.328125 -0.203125 0.328125 -0.109375 C 0.328125 -0.0625 0.359375 0 0.453125 0 C 0.625 0 1.046875 -0.03125 1.21875 -0.03125 C 1.40625 -0.03125 1.890625 0 2.09375 0 C 2.140625 0 2.265625 0 2.265625 -0.15625 C 2.265625 -0.265625 2.15625 -0.28125 2.125 -0.28125 C 2.046875 -0.28125 1.703125 -0.296875 1.703125 -0.578125 C 1.703125 -0.703125 1.8125 -0.859375 1.828125 -0.90625 L 2.53125 -2.0625 L 4.875 -2.0625 C 4.890625 -1.859375 4.921875 -1.5625 4.953125 -1.328125 C 4.984375 -0.984375 5.046875 -0.59375 5.046875 -0.5625 C 5.046875 -0.421875 4.921875 -0.28125 4.390625 -0.28125 C 4.3125 -0.28125 4.1875 -0.28125 4.1875 -0.109375 C 4.1875 -0.015625 4.265625 0 4.328125 0 C 4.5 0 4.703125 -0.015625 4.890625 -0.015625 C 5.0625 -0.015625 5.28125 -0.03125 5.421875 -0.03125 C 5.71875 -0.03125 5.734375 -0.03125 5.953125 -0.015625 C 6.09375 -0.015625 6.296875 0 6.4375 0 C 6.5 0 6.609375 0 6.609375 -0.15625 C 6.609375 -0.28125 6.515625 -0.28125 6.40625 -0.28125 C 5.875 -0.28125 5.859375 -0.34375 5.84375 -0.59375 L 5.203125 -6.15625 C 5.1875 -6.359375 5.1875 -6.40625 5.03125 -6.40625 C 4.90625 -6.40625 4.859375 -6.34375 4.78125 -6.21875 Z M 2.703125 -2.34375 L 4.515625 -5.296875 L 4.84375 -2.34375 Z M 2.703125 -2.34375 "/>
</g>
<g id="glyph-0-1">
<path d="M 1.453125 -0.671875 C 1.375 -0.359375 1.359375 -0.28125 0.6875 -0.28125 C 0.515625 -0.28125 0.421875 -0.28125 0.421875 -0.109375 C 0.421875 0 0.515625 0 0.671875 0 L 3.921875 0 C 5.375 0 6.4375 -1.046875 6.4375 -1.921875 C 6.4375 -2.5625 5.90625 -3.09375 5.015625 -3.1875 C 6.046875 -3.390625 6.90625 -4.0625 6.90625 -4.859375 C 6.90625 -5.5625 6.265625 -6.109375 5.203125 -6.109375 L 2.140625 -6.109375 C 1.984375 -6.109375 1.875 -6.109375 1.875 -5.9375 C 1.875 -5.828125 1.953125 -5.828125 2.140625 -5.828125 C 2.1875 -5.828125 2.34375 -5.828125 2.484375 -5.8125 C 2.640625 -5.796875 2.703125 -5.78125 2.703125 -5.671875 C 2.703125 -5.625 2.6875 -5.59375 2.65625 -5.5 Z M 2.84375 -3.28125 L 3.390625 -5.484375 C 3.484375 -5.796875 3.5 -5.828125 3.875 -5.828125 L 5.078125 -5.828125 C 6 -5.828125 6.09375 -5.125 6.09375 -4.890625 C 6.09375 -4.109375 5.25 -3.28125 4.25 -3.28125 Z M 2.421875 -0.28125 C 2.296875 -0.28125 2.28125 -0.28125 2.25 -0.28125 C 2.15625 -0.296875 2.125 -0.296875 2.125 -0.359375 C 2.125 -0.390625 2.125 -0.40625 2.171875 -0.578125 L 2.78125 -3.0625 L 4.46875 -3.0625 C 5.015625 -3.0625 5.59375 -2.828125 5.59375 -2.015625 C 5.59375 -1.125 4.765625 -0.28125 3.703125 -0.28125 Z M 2.421875 -0.28125 "/>
</g>
<g id="glyph-0-2">
<path d="M 6.921875 -6.0625 C 6.9375 -6.171875 6.9375 -6.1875 6.9375 -6.203125 C 6.9375 -6.21875 6.9375 -6.296875 6.84375 -6.296875 C 6.78125 -6.296875 6.75 -6.28125 6.6875 -6.203125 L 6.15625 -5.609375 C 6.109375 -5.5625 6.078125 -5.515625 6.0625 -5.515625 C 6.0625 -5.515625 6.046875 -5.53125 6 -5.59375 C 5.859375 -5.78125 5.453125 -6.296875 4.53125 -6.296875 C 2.484375 -6.296875 0.453125 -4.3125 0.453125 -2.28125 C 0.453125 -0.828125 1.515625 0.203125 2.953125 0.203125 C 3.890625 0.203125 4.625 -0.28125 4.96875 -0.59375 C 5.78125 -1.328125 5.9375 -2.109375 5.9375 -2.140625 C 5.9375 -2.1875 5.921875 -2.25 5.8125 -2.25 C 5.71875 -2.25 5.6875 -2.1875 5.6875 -2.15625 C 5.25 -0.71875 3.96875 -0.078125 3.078125 -0.078125 C 2.203125 -0.078125 1.28125 -0.609375 1.28125 -1.953125 C 1.28125 -2.359375 1.421875 -3.765625 2.328125 -4.875 C 2.859375 -5.515625 3.734375 -6.03125 4.59375 -6.03125 C 5.59375 -6.03125 6.109375 -5.265625 6.109375 -4.28125 C 6.109375 -3.984375 6.09375 -3.921875 6.09375 -3.84375 C 6.09375 -3.75 6.1875 -3.75 6.21875 -3.75 C 6.34375 -3.75 6.34375 -3.765625 6.375 -3.9375 Z M 6.921875 -6.0625 "/>
</g>
<g id="glyph-0-3">
<path d="M 6.921875 -6.0625 C 6.9375 -6.171875 6.9375 -6.1875 6.9375 -6.203125 C 6.9375 -6.21875 6.9375 -6.296875 6.84375 -6.296875 C 6.78125 -6.296875 6.75 -6.28125 6.6875 -6.203125 L 6.15625 -5.609375 C 6.109375 -5.5625 6.078125 -5.515625 6.0625 -5.515625 C 6.0625 -5.515625 6.046875 -5.53125 6 -5.59375 C 5.859375 -5.78125 5.453125 -6.296875 4.53125 -6.296875 C 2.484375 -6.296875 0.453125 -4.3125 0.453125 -2.28125 C 0.453125 -0.875 1.453125 0.203125 2.96875 0.203125 C 4 0.203125 4.671875 -0.234375 4.921875 -0.546875 C 4.984375 -0.34375 5.21875 -0.015625 5.328125 -0.015625 C 5.390625 -0.015625 5.421875 -0.046875 5.453125 -0.234375 L 5.625 -0.921875 C 5.6875 -1.15625 5.78125 -1.53125 5.828125 -1.71875 C 5.9375 -2.140625 5.9375 -2.15625 6.46875 -2.171875 C 6.5 -2.171875 6.609375 -2.1875 6.609375 -2.328125 C 6.609375 -2.34375 6.609375 -2.453125 6.484375 -2.453125 C 6.421875 -2.453125 6.078125 -2.4375 6.015625 -2.421875 L 5.5 -2.421875 C 5.296875 -2.421875 5.078125 -2.4375 4.890625 -2.4375 C 4.671875 -2.4375 4.4375 -2.453125 4.234375 -2.453125 C 4.15625 -2.453125 4.046875 -2.453125 4.046875 -2.28125 C 4.046875 -2.171875 4.125 -2.171875 4.359375 -2.171875 C 4.546875 -2.171875 4.59375 -2.171875 4.8125 -2.15625 C 5.0625 -2.125 5.109375 -2.09375 5.109375 -1.984375 C 5.109375 -1.953125 5.109375 -1.9375 5.046875 -1.703125 C 4.984375 -1.453125 4.875 -1.015625 4.84375 -0.953125 C 4.546875 -0.296875 3.671875 -0.078125 3.125 -0.078125 C 2.328125 -0.078125 1.296875 -0.515625 1.296875 -1.96875 C 1.296875 -2.53125 1.484375 -3.84375 2.328125 -4.875 C 2.84375 -5.515625 3.734375 -6.03125 4.59375 -6.03125 C 5.59375 -6.03125 6.109375 -5.265625 6.109375 -4.28125 C 6.109375 -3.984375 6.09375 -3.921875 6.09375 -3.84375 C 6.09375 -3.75 6.1875 -3.75 6.21875 -3.75 C 6.34375 -3.75 6.34375 -3.765625 6.375 -3.9375 Z M 6.921875 -6.0625 "/>
</g>
<g id="glyph-1-0">
<path d="M 3.046875 2.125 C 3.046875 2.078125 3.015625 2.0625 2.96875 2 C 1.8125 0.9375 1.46875 -0.671875 1.46875 -2.234375 C 1.46875 -3.625 1.734375 -5.296875 3 -6.5 C 3.03125 -6.53125 3.046875 -6.5625 3.046875 -6.609375 C 3.046875 -6.671875 3 -6.703125 2.9375 -6.703125 C 2.828125 -6.703125 2.03125 -6.0625 1.546875 -5.078125 C 1.125 -4.234375 0.90625 -3.3125 0.90625 -2.25 C 0.90625 -1.59375 0.984375 -0.578125 1.46875 0.46875 C 2 1.578125 2.828125 2.21875 2.9375 2.21875 C 3 2.21875 3.046875 2.1875 3.046875 2.125 Z M 3.046875 2.125 "/>
</g>
<g id="glyph-1-1">
<path d="M 2.71875 -5.71875 C 2.71875 -5.9375 2.703125 -5.953125 2.484375 -5.953125 C 1.9375 -5.375 1.109375 -5.375 0.828125 -5.375 L 0.828125 -5.109375 C 1 -5.109375 1.546875 -5.109375 2.03125 -5.328125 L 2.03125 -0.71875 C 2.03125 -0.390625 2 -0.28125 1.171875 -0.28125 L 0.890625 -0.28125 L 0.890625 0 C 1.203125 -0.03125 2 -0.03125 2.375 -0.03125 C 2.734375 -0.03125 3.546875 -0.03125 3.859375 0 L 3.859375 -0.28125 L 3.578125 -0.28125 C 2.75 -0.28125 2.71875 -0.390625 2.71875 -0.71875 Z M 2.71875 -5.71875 "/>
</g>
<g id="glyph-1-2">
<path d="M 2.65625 -2.25 C 2.65625 -2.96875 2.5625 -3.953125 2.09375 -4.953125 C 1.5625 -6.046875 0.734375 -6.703125 0.625 -6.703125 C 0.53125 -6.703125 0.515625 -6.625 0.515625 -6.609375 C 0.515625 -6.5625 0.53125 -6.53125 0.59375 -6.46875 C 1.125 -6 2.09375 -4.796875 2.09375 -2.25 C 2.09375 -0.96875 1.875 0.8125 0.578125 2.015625 C 0.546875 2.046875 0.515625 2.078125 0.515625 2.125 C 0.515625 2.15625 0.53125 2.21875 0.625 2.21875 C 0.734375 2.21875 1.53125 1.578125 2.015625 0.609375 C 2.453125 -0.25 2.65625 -1.171875 2.65625 -2.25 Z M 2.65625 -2.25 "/>
</g>
<g id="glyph-1-3">
<path d="M 4.125 -1.578125 L 3.875 -1.578125 C 3.859375 -1.46875 3.796875 -0.9375 3.671875 -0.796875 C 3.625 -0.71875 3 -0.71875 2.828125 -0.71875 L 1.234375 -0.71875 L 2.125 -1.5625 C 3.578125 -2.828125 4.125 -3.296875 4.125 -4.203125 C 4.125 -5.234375 3.28125 -5.953125 2.1875 -5.953125 C 1.15625 -5.953125 0.453125 -5.140625 0.453125 -4.328125 C 0.453125 -3.875 0.84375 -3.828125 0.921875 -3.828125 C 1.125 -3.828125 1.390625 -3.984375 1.390625 -4.296875 C 1.390625 -4.5625 1.203125 -4.765625 0.921875 -4.765625 C 0.875 -4.765625 0.84375 -4.765625 0.8125 -4.75 C 1.03125 -5.390625 1.59375 -5.671875 2.078125 -5.671875 C 3 -5.671875 3.3125 -4.828125 3.3125 -4.203125 C 3.3125 -3.296875 2.625 -2.5625 2.1875 -2.09375 L 0.546875 -0.328125 C 0.453125 -0.21875 0.453125 -0.203125 0.453125 0 L 3.875 0 Z M 4.125 -1.578125 "/>
</g>
</g>
</defs>
<path fill="none" stroke-width="0.79701" stroke-linecap="butt" stroke-linejoin="miter" stroke="rgb(0%, 0%, 0%)" stroke-opacity="1" stroke-miterlimit="10" d="M 0.0000289706 0.00160576 L 170.080054 0.00160576 L 85.040041 141.732345 Z M 0.0000289706 0.00160576 " transform="matrix(0.996222, 0, 0, -0.996222, 30.214815, 159.919568)"/>
<path fill-rule="nonzero" fill="rgb(0%, 0%, 0%)" fill-opacity="1" d="M 32.398438 159.917969 C 32.398438 158.714844 31.421875 157.734375 30.214844 157.734375 C 29.007812 157.734375 28.03125 158.714844 28.03125 159.917969 C 28.03125 161.125 29.007812 162.101562 30.214844 162.101562 C 31.421875 162.101562 32.398438 161.125 32.398438 159.917969 Z M 32.398438 159.917969 "/>
<path fill-rule="nonzero" fill="rgb(0%, 0%, 0%)" fill-opacity="1" d="M 201.835938 159.917969 C 201.835938 158.714844 200.859375 157.734375 199.652344 157.734375 C 198.445312 157.734375 197.46875 158.714844 197.46875 159.917969 C 197.46875 161.125 198.445312 162.101562 199.652344 162.101562 C 200.859375 162.101562 201.835938 161.125 201.835938 159.917969 Z M 201.835938 159.917969 "/>
<path fill-rule="nonzero" fill="rgb(0%, 0%, 0%)" fill-opacity="1" d="M 117.117188 18.722656 C 117.117188 17.515625 116.140625 16.539062 114.933594 16.539062 C 113.726562 16.539062 112.75 17.515625 112.75 18.722656 C 112.75 19.925781 113.726562 20.90625 114.933594 20.90625 C 116.140625 20.90625 117.117188 19.925781 117.117188 18.722656 Z M 117.117188 18.722656 "/>
<path fill-rule="nonzero" fill="rgb(0%, 0%, 0%)" fill-opacity="1" d="M 117.117188 89.320312 C 117.117188 88.113281 116.140625 87.136719 114.933594 87.136719 C 113.726562 87.136719 112.75 88.113281 112.75 89.320312 C 112.75 90.527344 113.726562 91.503906 114.933594 91.503906 C 116.140625 91.503906 117.117188 90.527344 117.117188 89.320312 Z M 117.117188 89.320312 "/>
<g fill="rgb(0%, 0%, 0%)" fill-opacity="1">
<use xlink:href="#glyph-0-0" x="6.563503" y="170.124869"/>
</g>
<g fill="rgb(0%, 0%, 0%)" fill-opacity="1">
<use xlink:href="#glyph-1-0" x="14.975264" y="170.124869"/>
<use xlink:href="#glyph-1-1" x="18.545595" y="170.124869"/>
<use xlink:href="#glyph-1-2" x="23.13602" y="170.124869"/>
</g>
<g fill="rgb(0%, 0%, 0%)" fill-opacity="1">
<use xlink:href="#glyph-0-1" x="203.156004" y="170.124869"/>
</g>
<g fill="rgb(0%, 0%, 0%)" fill-opacity="1">
<use xlink:href="#glyph-1-0" x="212.076919" y="170.124869"/>
<use xlink:href="#glyph-1-1" x="215.64725" y="170.124869"/>
<use xlink:href="#glyph-1-2" x="220.237675" y="170.124869"/>
</g>
<g fill="rgb(0%, 0%, 0%)" fill-opacity="1">
<use xlink:href="#glyph-0-2" x="104.708328" y="12.983764"/>
</g>
<g fill="rgb(0%, 0%, 0%)" fill-opacity="1">
<use xlink:href="#glyph-1-0" x="113.422901" y="12.983764"/>
<use xlink:href="#glyph-1-3" x="116.993232" y="12.983764"/>
<use xlink:href="#glyph-1-2" x="121.583658" y="12.983764"/>
</g>
<g fill="rgb(0%, 0%, 0%)" fill-opacity="1">
<use xlink:href="#glyph-0-3" x="119.139603" y="99.632184"/>
</g>
</svg>
