<?xml version="1.0" encoding="UTF-8"?>
<svg xmlns="http://www.w3.org/2000/svg" xmlns:xlink="http://www.w3.org/1999/xlink" width="285.687pt" height="331.027pt" viewBox="0 0 285.687 331.027">
<defs>
<g>
<g id="glyph-0-0">
<path d="M 6.546875 -2.28125 C 6.71875 -2.28125 6.890625 -2.28125 6.890625 -2.484375 C 6.890625 -2.6875 6.71875 -2.6875 6.546875 -2.6875 L 1.171875 -2.6875 C 1 -2.6875 0.828125 -2.6875 0.828125 -2.484375 C 0.828125 -2.28125 1 -2.28125 1.171875 -2.28125 Z M 6.546875 -2.28125 "/>
</g>
<g id="glyph-1-0">
<path d="M 2.921875 -6.359375 C 2.921875 -6.59375 2.921875 -6.625 2.6875 -6.625 C 2.078125 -5.984375 1.203125 -5.984375 0.890625 -5.984375 L 0.890625 -5.671875 C 1.078125 -5.671875 1.671875 -5.671875 2.1875 -5.9375 L 2.1875 -0.78125 C 2.1875 -0.421875 2.15625 -0.3125 1.265625 -0.3125 L 0.9375 -0.3125 L 0.9375 0 C 1.296875 -0.03125 2.15625 -0.03125 2.546875 -0.03125 C 2.953125 -0.03125 3.8125 -0.03125 4.15625 0 L 4.15625 -0.3125 L 3.84375 -0.3125 C 2.953125 -0.3125 2.921875 -0.421875 2.921875 -0.78125 Z M 2.921875 -6.359375 "/>
</g>
<g id="glyph-1-1">
<path d="M 1.265625 -0.765625 L 2.3125 -1.78125 C 3.859375 -3.15625 4.46875 -3.703125 4.46875 -4.6875 C 4.46875 -5.828125 3.5625 -6.625 2.359375 -6.625 C 1.234375 -6.625 0.5 -5.703125 0.5 -4.8125 C 0.5 -4.265625 1 -4.265625 1.03125 -4.265625 C 1.1875 -4.265625 1.546875 -4.375 1.546875 -4.796875 C 1.546875 -5.046875 1.359375 -5.3125 1.015625 -5.3125 C 0.9375 -5.3125 0.921875 -5.3125 0.890625 -5.296875 C 1.109375 -5.9375 1.65625 -6.3125 2.21875 -6.3125 C 3.125 -6.3125 3.5625 -5.5 3.5625 -4.6875 C 3.5625 -3.890625 3.0625 -3.109375 2.515625 -2.5 L 0.609375 -0.375 C 0.5 -0.265625 0.5 -0.234375 0.5 0 L 4.1875 0 L 4.46875 -1.734375 L 4.21875 -1.734375 C 4.15625 -1.4375 4.09375 -1 4 -0.84375 C 3.921875 -0.765625 3.265625 -0.765625 3.046875 -0.765625 Z M 1.265625 -0.765625 "/>
</g>
<g id="glyph-1-2">
<path d="M 2.875 -3.5 C 3.703125 -3.765625 4.265625 -4.46875 4.265625 -5.25 C 4.265625 -6.0625 3.40625 -6.625 2.4375 -6.625 C 1.4375 -6.625 0.6875 -6.015625 0.6875 -5.265625 C 0.6875 -4.9375 0.90625 -4.75 1.1875 -4.75 C 1.5 -4.75 1.703125 -4.96875 1.703125 -5.25 C 1.703125 -5.75 1.234375 -5.75 1.078125 -5.75 C 1.390625 -6.234375 2.046875 -6.375 2.40625 -6.375 C 2.8125 -6.375 3.359375 -6.15625 3.359375 -5.25 C 3.359375 -5.140625 3.34375 -4.5625 3.078125 -4.125 C 2.78125 -3.640625 2.4375 -3.625 2.203125 -3.609375 C 2.109375 -3.59375 1.875 -3.578125 1.8125 -3.578125 C 1.734375 -3.5625 1.65625 -3.5625 1.65625 -3.453125 C 1.65625 -3.34375 1.734375 -3.34375 1.890625 -3.34375 L 2.328125 -3.34375 C 3.15625 -3.34375 3.515625 -2.671875 3.515625 -1.703125 C 3.515625 -0.34375 2.828125 -0.0625 2.390625 -0.0625 C 1.96875 -0.0625 1.21875 -0.234375 0.875 -0.8125 C 1.21875 -0.765625 1.53125 -0.984375 1.53125 -1.359375 C 1.53125 -1.71875 1.265625 -1.921875 0.96875 -1.921875 C 0.734375 -1.921875 0.421875 -1.78125 0.421875 -1.34375 C 0.421875 -0.4375 1.34375 0.21875 2.421875 0.21875 C 3.640625 0.21875 4.546875 -0.6875 4.546875 -1.703125 C 4.546875 -2.515625 3.921875 -3.296875 2.875 -3.5 Z M 2.875 -3.5 "/>
</g>
<g id="glyph-1-3">
<path d="M 2.921875 -1.640625 L 2.921875 -0.78125 C 2.921875 -0.421875 2.90625 -0.3125 2.171875 -0.3125 L 1.953125 -0.3125 L 1.953125 0 C 2.359375 -0.03125 2.875 -0.03125 3.296875 -0.03125 C 3.71875 -0.03125 4.25 -0.03125 4.65625 0 L 4.65625 -0.3125 L 4.4375 -0.3125 C 3.703125 -0.3125 3.6875 -0.421875 3.6875 -0.78125 L 3.6875 -1.640625 L 4.6875 -1.640625 L 4.6875 -1.953125 L 3.6875 -1.953125 L 3.6875 -6.46875 C 3.6875 -6.671875 3.6875 -6.734375 3.53125 -6.734375 C 3.4375 -6.734375 3.40625 -6.734375 3.328125 -6.609375 L 0.28125 -1.953125 L 0.28125 -1.640625 Z M 2.984375 -1.953125 L 0.5625 -1.953125 L 2.984375 -5.65625 Z M 2.984375 -1.953125 "/>
</g>
<g id="glyph-1-4">
<path d="M 4.46875 -2 C 4.46875 -3.1875 3.640625 -4.171875 2.578125 -4.171875 C 2.09375 -4.171875 1.671875 -4.015625 1.3125 -3.671875 L 1.3125 -5.609375 C 1.515625 -5.546875 1.84375 -5.46875 2.15625 -5.46875 C 3.375 -5.46875 4.078125 -6.375 4.078125 -6.515625 C 4.078125 -6.5625 4.046875 -6.625 3.96875 -6.625 C 3.96875 -6.625 3.9375 -6.625 3.890625 -6.59375 C 3.703125 -6.5 3.203125 -6.296875 2.546875 -6.296875 C 2.140625 -6.296875 1.6875 -6.375 1.21875 -6.578125 C 1.140625 -6.609375 1.125 -6.609375 1.109375 -6.609375 C 1 -6.609375 1 -6.53125 1 -6.375 L 1 -3.421875 C 1 -3.25 1 -3.171875 1.140625 -3.171875 C 1.21875 -3.171875 1.234375 -3.203125 1.265625 -3.265625 C 1.375 -3.421875 1.75 -3.953125 2.546875 -3.953125 C 3.078125 -3.953125 3.3125 -3.5 3.40625 -3.3125 C 3.5625 -2.953125 3.578125 -2.5625 3.578125 -2.0625 C 3.578125 -1.71875 3.578125 -1.125 3.34375 -0.703125 C 3.09375 -0.3125 2.734375 -0.0625 2.28125 -0.0625 C 1.546875 -0.0625 0.984375 -0.59375 0.8125 -1.171875 C 0.84375 -1.15625 0.875 -1.15625 0.984375 -1.15625 C 1.3125 -1.15625 1.484375 -1.40625 1.484375 -1.640625 C 1.484375 -1.875 1.3125 -2.125 0.984375 -2.125 C 0.84375 -2.125 0.5 -2.0625 0.5 -1.59375 C 0.5 -0.75 1.1875 0.21875 2.296875 0.21875 C 3.453125 0.21875 4.46875 -0.734375 4.46875 -2 Z M 4.46875 -2 "/>
</g>
<g id="glyph-1-5">
<path d="M 1.3125 -3.265625 L 1.3125 -3.5 C 1.3125 -6.015625 2.546875 -6.375 3.046875 -6.375 C 3.296875 -6.375 3.703125 -6.3125 3.921875 -5.96875 C 3.78125 -5.96875 3.375 -5.96875 3.375 -5.53125 C 3.375 -5.21875 3.625 -5.0625 3.828125 -5.0625 C 4 -5.0625 4.296875 -5.15625 4.296875 -5.546875 C 4.296875 -6.140625 3.859375 -6.625 3.03125 -6.625 C 1.765625 -6.625 0.421875 -5.34375 0.421875 -3.140625 C 0.421875 -0.484375 1.5625 0.21875 2.5 0.21875 C 3.59375 0.21875 4.546875 -0.71875 4.546875 -2.03125 C 4.546875 -3.296875 3.65625 -4.25 2.546875 -4.25 C 1.875 -4.25 1.515625 -3.734375 1.3125 -3.265625 Z M 2.5 -0.0625 C 1.875 -0.0625 1.5625 -0.65625 1.515625 -0.8125 C 1.328125 -1.265625 1.328125 -2.0625 1.328125 -2.25 C 1.328125 -3.015625 1.65625 -4.015625 2.546875 -4.015625 C 2.703125 -4.015625 3.15625 -4.015625 3.46875 -3.40625 C 3.640625 -3.03125 3.640625 -2.53125 3.640625 -2.03125 C 3.640625 -1.5625 3.640625 -1.0625 3.484375 -0.703125 C 3.1875 -0.109375 2.71875 -0.0625 2.5 -0.0625 Z M 2.5 -0.0625 "/>
</g>
<g id="glyph-1-6">
<path d="M 3.296875 2.390625 C 3.296875 2.359375 3.296875 2.328125 3.125 2.171875 C 1.875 0.921875 1.5625 -0.96875 1.5625 -2.484375 C 1.5625 -4.21875 1.9375 -5.9375 3.15625 -7.1875 C 3.296875 -7.296875 3.296875 -7.328125 3.296875 -7.359375 C 3.296875 -7.421875 3.25 -7.453125 3.1875 -7.453125 C 3.09375 -7.453125 2.203125 -6.78125 1.609375 -5.515625 C 1.109375 -4.421875 0.984375 -3.3125 0.984375 -2.484375 C 0.984375 -1.703125 1.09375 -0.5 1.640625 0.609375 C 2.234375 1.84375 3.09375 2.484375 3.1875 2.484375 C 3.25 2.484375 3.296875 2.453125 3.296875 2.390625 Z M 3.296875 2.390625 "/>
</g>
<g id="glyph-1-7">
<path d="M 2.875 -2.484375 C 2.875 -3.265625 2.765625 -4.46875 2.21875 -5.578125 C 1.625 -6.8125 0.765625 -7.453125 0.671875 -7.453125 C 0.609375 -7.453125 0.5625 -7.40625 0.5625 -7.359375 C 0.5625 -7.328125 0.5625 -7.296875 0.75 -7.125 C 1.734375 -6.140625 2.296875 -4.5625 2.296875 -2.484375 C 2.296875 -0.78125 1.921875 0.96875 0.703125 2.21875 C 0.5625 2.328125 0.5625 2.359375 0.5625 2.390625 C 0.5625 2.4375 0.609375 2.484375 0.671875 2.484375 C 0.765625 2.484375 1.65625 1.8125 2.25 0.546875 C 2.75 -0.546875 2.875 -1.65625 2.875 -2.484375 Z M 2.875 -2.484375 "/>
</g>
<g id="glyph-1-8">
<path d="M 6.828125 -3.25 C 6.96875 -3.25 7.171875 -3.25 7.171875 -3.453125 C 7.171875 -3.640625 6.96875 -3.640625 6.84375 -3.640625 L 0.890625 -3.640625 C 0.75 -3.640625 0.5625 -3.640625 0.5625 -3.453125 C 0.5625 -3.25 0.75 -3.25 0.890625 -3.25 Z M 6.84375 -1.328125 C 6.96875 -1.328125 7.171875 -1.328125 7.171875 -1.515625 C 7.171875 -1.71875 6.96875 -1.71875 6.828125 -1.71875 L 0.890625 -1.71875 C 0.75 -1.71875 0.5625 -1.71875 0.5625 -1.515625 C 0.5625 -1.328125 0.75 -1.328125 0.890625 -1.328125 Z M 6.84375 -1.328125 "/>
</g>
<g id="glyph-2-0">
<path d="M 2.015625 -0.015625 C 2.015625 -0.671875 1.765625 -1.046875 1.375 -1.046875 C 1.046875 -1.046875 0.859375 -0.8125 0.859375 -0.53125 C 0.859375 -0.265625 1.046875 0 1.375 0 C 1.5 0 1.625 -0.046875 1.734375 -0.125 C 1.765625 -0.15625 1.765625 -0.15625 1.78125 -0.15625 C 1.78125 -0.15625 1.796875 -0.15625 1.796875 -0.015625 C 1.796875 0.71875 1.453125 1.328125 1.125 1.65625 C 1.015625 1.765625 1.015625 1.78125 1.015625 1.8125 C 1.015625 1.875 1.0625 1.921875 1.109375 1.921875 C 1.21875 1.921875 2.015625 1.15625 2.015625 -0.015625 Z M 2.015625 -0.015625 "/>
</g>
<g id="glyph-2-1">
<path d="M 3.3125 -3 C 3.375 -3.265625 3.609375 -4.171875 4.296875 -4.171875 C 4.359375 -4.171875 4.59375 -4.171875 4.796875 -4.046875 C 4.515625 -4 4.328125 -3.75 4.328125 -3.515625 C 4.328125 -3.34375 4.4375 -3.15625 4.703125 -3.15625 C 4.921875 -3.15625 5.234375 -3.34375 5.234375 -3.734375 C 5.234375 -4.25 4.65625 -4.390625 4.3125 -4.390625 C 3.734375 -4.390625 3.390625 -3.859375 3.265625 -3.640625 C 3.015625 -4.296875 2.484375 -4.390625 2.203125 -4.390625 C 1.15625 -4.390625 0.59375 -3.109375 0.59375 -2.859375 C 0.59375 -2.765625 0.703125 -2.765625 0.71875 -2.765625 C 0.796875 -2.765625 0.828125 -2.78125 0.84375 -2.875 C 1.1875 -3.921875 1.84375 -4.171875 2.171875 -4.171875 C 2.359375 -4.171875 2.71875 -4.078125 2.71875 -3.515625 C 2.71875 -3.203125 2.546875 -2.53125 2.171875 -1.140625 C 2.015625 -0.53125 1.671875 -0.109375 1.234375 -0.109375 C 1.171875 -0.109375 0.9375 -0.109375 0.734375 -0.234375 C 0.984375 -0.28125 1.203125 -0.5 1.203125 -0.78125 C 1.203125 -1.046875 0.984375 -1.125 0.828125 -1.125 C 0.53125 -1.125 0.28125 -0.859375 0.28125 -0.546875 C 0.28125 -0.09375 0.78125 0.109375 1.21875 0.109375 C 1.875 0.109375 2.234375 -0.59375 2.265625 -0.640625 C 2.390625 -0.28125 2.75 0.109375 3.34375 0.109375 C 4.359375 0.109375 4.921875 -1.171875 4.921875 -1.421875 C 4.921875 -1.515625 4.84375 -1.515625 4.8125 -1.515625 C 4.71875 -1.515625 4.703125 -1.484375 4.6875 -1.40625 C 4.359375 -0.34375 3.671875 -0.109375 3.359375 -0.109375 C 2.96875 -0.109375 2.8125 -0.421875 2.8125 -0.765625 C 2.8125 -0.984375 2.875 -1.203125 2.984375 -1.640625 Z M 3.3125 -3 "/>
</g>
<g id="glyph-2-2">
<path d="M 4.828125 -3.78125 C 4.875 -3.921875 4.875 -3.9375 4.875 -4.015625 C 4.875 -4.1875 4.734375 -4.28125 4.578125 -4.28125 C 4.484375 -4.28125 4.328125 -4.21875 4.234375 -4.078125 C 4.21875 -4.03125 4.140625 -3.71875 4.09375 -3.53125 C 4.03125 -3.28125 3.953125 -3.015625 3.890625 -2.75 L 3.453125 -0.953125 C 3.40625 -0.8125 2.984375 -0.109375 2.328125 -0.109375 C 1.8125 -0.109375 1.703125 -0.546875 1.703125 -0.921875 C 1.703125 -1.375 1.875 -1.984375 2.21875 -2.859375 C 2.375 -3.265625 2.421875 -3.375 2.421875 -3.578125 C 2.421875 -4.03125 2.09375 -4.390625 1.59375 -4.390625 C 0.65625 -4.390625 0.28125 -2.953125 0.28125 -2.859375 C 0.28125 -2.765625 0.390625 -2.765625 0.40625 -2.765625 C 0.5 -2.765625 0.515625 -2.78125 0.5625 -2.9375 C 0.828125 -3.875 1.234375 -4.171875 1.5625 -4.171875 C 1.65625 -4.171875 1.8125 -4.171875 1.8125 -3.859375 C 1.8125 -3.609375 1.71875 -3.34375 1.65625 -3.15625 C 1.25 -2.109375 1.078125 -1.546875 1.078125 -1.078125 C 1.078125 -0.1875 1.703125 0.109375 2.28125 0.109375 C 2.671875 0.109375 3.015625 -0.0625 3.296875 -0.34375 C 3.15625 0.171875 3.046875 0.671875 2.640625 1.1875 C 2.390625 1.53125 2 1.8125 1.546875 1.8125 C 1.40625 1.8125 0.96875 1.78125 0.796875 1.40625 C 0.953125 1.40625 1.078125 1.40625 1.21875 1.28125 C 1.328125 1.1875 1.421875 1.0625 1.421875 0.875 C 1.421875 0.5625 1.15625 0.53125 1.046875 0.53125 C 0.828125 0.53125 0.5 0.6875 0.5 1.171875 C 0.5 1.671875 0.9375 2.03125 1.546875 2.03125 C 2.578125 2.03125 3.59375 1.140625 3.875 0.015625 Z M 4.828125 -3.78125 "/>
</g>
<g id="glyph-3-0">
<path d="M 3.515625 -1.265625 L 3.28125 -1.265625 C 3.25 -1.109375 3.1875 -0.703125 3.09375 -0.625 C 3.03125 -0.59375 2.5 -0.59375 2.40625 -0.59375 L 1.125 -0.59375 C 1.859375 -1.234375 2.09375 -1.4375 2.515625 -1.765625 C 3.03125 -2.171875 3.515625 -2.59375 3.515625 -3.265625 C 3.515625 -4.109375 2.78125 -4.609375 1.890625 -4.609375 C 1.015625 -4.609375 0.4375 -4.015625 0.4375 -3.375 C 0.4375 -3.015625 0.734375 -2.984375 0.8125 -2.984375 C 0.96875 -2.984375 1.171875 -3.09375 1.171875 -3.34375 C 1.171875 -3.484375 1.125 -3.71875 0.765625 -3.71875 C 0.984375 -4.21875 1.453125 -4.359375 1.78125 -4.359375 C 2.46875 -4.359375 2.84375 -3.828125 2.84375 -3.265625 C 2.84375 -2.65625 2.40625 -2.171875 2.1875 -1.921875 L 0.5 -0.265625 C 0.4375 -0.203125 0.4375 -0.1875 0.4375 0 L 3.296875 0 Z M 3.515625 -1.265625 "/>
</g>
</g>
<clipPath id="clip-0">
<path clip-rule="nonzero" d="M 0.261719 0 L 265 0 L 265 285 L 0.261719 285 Z M 0.261719 0 "/>
</clipPath>
<clipPath id="clip-1">
<path clip-rule="nonzero" d="M 42 98 L 270 98 L 270 330.058594 L 42 330.058594 Z M 42 98 "/>
</clipPath>
</defs>
<path fill="none" stroke-width="0.19925" stroke-linecap="butt" stroke-linejoin="miter" stroke="rgb(50%, 50%, 50%)" stroke-opacity="1" stroke-miterlimit="10" d="M 22.248955 56.795448 L 22.248955 61.046187 M 133.489032 56.795448 L 133.489032 61.046187 M 189.112988 56.795448 L 189.112988 61.046187 M 244.733026 56.795448 L 244.733026 61.046187 " transform="matrix(0.997069, 0, 0, -0.997069, 3.44125, 326.679778)"/>
<path fill="none" stroke-width="0.19925" stroke-linecap="butt" stroke-linejoin="miter" stroke="rgb(50%, 50%, 50%)" stroke-opacity="1" stroke-miterlimit="10" d="M 75.741665 29.461434 L 79.996322 29.461434 M 75.741665 88.380202 L 79.996322 88.380202 M 75.741665 117.841545 L 79.996322 117.841545 M 75.741665 147.29897 L 79.996322 147.29897 M 75.741665 176.760313 L 79.996322 176.760313 M 75.741665 206.217739 L 79.996322 206.217739 M 75.741665 235.679082 L 79.996322 235.679082 " transform="matrix(0.997069, 0, 0, -0.997069, 3.44125, 326.679778)"/>
<path fill="none" stroke-width="0.3985" stroke-linecap="butt" stroke-linejoin="miter" stroke="rgb(0%, 0%, 0%)" stroke-opacity="1" stroke-miterlimit="10" d="M 0.00015648 58.918859 L 264.987699 58.918859 " transform="matrix(0.997069, 0, 0, -0.997069, 3.44125, 326.679778)"/>
<path fill-rule="nonzero" fill="rgb(0%, 0%, 0%)" fill-opacity="1" d="M 269.640625 267.933594 L 266.460938 266.34375 L 267.652344 267.933594 L 266.460938 269.523438 "/>
<path fill="none" stroke-width="0.3985" stroke-linecap="butt" stroke-linejoin="miter" stroke="rgb(0%, 0%, 0%)" stroke-opacity="1" stroke-miterlimit="10" d="M 77.868993 11.784628 L 77.868993 248.415628 " transform="matrix(0.997069, 0, 0, -0.997069, 3.44125, 326.679778)"/>
<path fill-rule="nonzero" fill="rgb(0%, 0%, 0%)" fill-opacity="1" d="M 81.082031 77.003906 L 79.492188 80.183594 L 81.082031 78.992188 L 82.671875 80.183594 "/>
<g fill="rgb(0%, 0%, 0%)" fill-opacity="1">
<use xlink:href="#glyph-0-0" x="19.277702" y="279.963094"/>
</g>
<g fill="rgb(0%, 0%, 0%)" fill-opacity="1">
<use xlink:href="#glyph-1-0" x="27.003902" y="279.963094"/>
</g>
<g fill="rgb(0%, 0%, 0%)" fill-opacity="1">
<use xlink:href="#glyph-1-0" x="134.055331" y="279.963094"/>
</g>
<g fill="rgb(0%, 0%, 0%)" fill-opacity="1">
<use xlink:href="#glyph-1-1" x="189.512325" y="279.963094"/>
</g>
<g fill="rgb(0%, 0%, 0%)" fill-opacity="1">
<use xlink:href="#glyph-1-2" x="244.970315" y="279.963094"/>
</g>
<g fill="rgb(0%, 0%, 0%)" fill-opacity="1">
<use xlink:href="#glyph-0-0" x="62.759893" y="300.092926"/>
</g>
<g fill="rgb(0%, 0%, 0%)" fill-opacity="1">
<use xlink:href="#glyph-1-0" x="70.486093" y="300.092926"/>
</g>
<g fill="rgb(0%, 0%, 0%)" fill-opacity="1">
<use xlink:href="#glyph-1-0" x="70.486183" y="241.760385"/>
</g>
<g fill="rgb(0%, 0%, 0%)" fill-opacity="1">
<use xlink:href="#glyph-1-1" x="70.486183" y="212.387721"/>
</g>
<g fill="rgb(0%, 0%, 0%)" fill-opacity="1">
<use xlink:href="#glyph-1-2" x="70.486183" y="183.01406"/>
</g>
<g fill="rgb(0%, 0%, 0%)" fill-opacity="1">
<use xlink:href="#glyph-1-3" x="70.486183" y="153.641396"/>
</g>
<g fill="rgb(0%, 0%, 0%)" fill-opacity="1">
<use xlink:href="#glyph-1-4" x="70.486183" y="124.267735"/>
</g>
<g fill="rgb(0%, 0%, 0%)" fill-opacity="1">
<use xlink:href="#glyph-1-5" x="70.486183" y="94.895071"/>
</g>
<g clip-path="url(#clip-0)">
<path fill="none" stroke-width="1.19553" stroke-linecap="butt" stroke-linejoin="miter" stroke="rgb(0%, 0%, 100%)" stroke-opacity="1" stroke-miterlimit="10" d="M 11.122597 101.343977 C 11.122597 101.343977 11.972745 100.270518 12.297917 99.863074 C 12.623088 99.45563 13.148064 98.809204 13.473236 98.409595 C 13.798408 98.009987 14.319466 97.375314 14.644638 96.983541 C 14.96981 96.591768 15.494786 95.968849 15.819957 95.584911 C 16.145129 95.197055 16.666187 94.585889 16.995277 94.209787 C 17.320449 93.829767 17.841507 93.230354 18.166679 92.862087 C 18.491851 92.489903 19.016827 91.902243 19.341998 91.537894 C 19.66717 91.177463 20.188228 90.601556 20.517318 90.245042 C 20.84249 89.888529 21.363548 89.324375 21.68872 88.975697 C 22.013891 88.627019 22.538867 88.074619 22.864039 87.733776 C 23.189211 87.389016 23.710269 86.848369 24.035441 86.515362 C 24.36453 86.182355 24.885589 85.653461 25.210761 85.324371 C 25.535932 84.9992 26.060908 84.482059 26.38608 84.160805 C 26.711252 83.839551 27.23231 83.334164 27.557482 83.024663 C 27.886571 82.711244 28.40763 82.21761 28.732801 81.912027 C 29.057973 81.606444 29.579031 81.124563 29.908121 80.826815 C 30.233293 80.529068 30.754351 80.055022 31.079523 79.76511 C 31.404694 79.475198 31.929671 79.016823 32.254842 78.734746 C 32.580014 78.448752 33.101072 78.002131 33.430162 77.727889 C 33.755334 77.44973 34.276392 77.014862 34.601564 76.744539 C 34.926735 76.478133 35.451711 76.055018 35.776883 75.79253 C 36.102055 75.530042 36.623113 75.11868 36.948285 74.864027 C 37.277374 74.609375 37.798433 74.209766 38.123604 73.962949 C 38.448776 73.716132 38.973752 73.324359 39.298924 73.085377 C 39.624096 72.846396 40.145154 72.470293 40.470326 72.239147 C 40.799415 72.004083 41.320474 71.639734 41.645645 71.416423 C 41.970817 71.189195 42.495793 70.836599 42.820965 70.617206 C 43.146137 70.401731 43.667195 70.056971 43.992367 69.849331 C 44.317538 69.637773 44.842515 69.304766 45.167686 69.104962 C 45.492858 68.90124 46.013916 68.579986 46.343006 68.384099 C 46.668178 68.188212 47.189236 67.882629 47.514408 67.694578 C 47.839579 67.506527 48.364555 67.20878 48.689727 67.028564 C 49.014899 66.848348 49.535957 66.562354 49.865047 66.389974 C 50.190218 66.213676 50.711277 65.943352 51.036448 65.77489 C 51.36162 65.610345 51.886596 65.347857 52.211768 65.18723 C 52.53694 65.030521 53.057998 64.779786 53.38317 64.626994 C 53.712259 64.47812 54.233318 64.239139 54.558489 64.094183 C 54.883661 63.949227 55.408637 63.721998 55.733809 63.584878 C 56.058981 63.447757 56.580039 63.236199 56.905211 63.102997 C 57.2343 62.973711 57.755358 62.769989 58.08053 62.64854 C 58.405702 62.52709 58.92676 62.335121 59.25585 62.217589 C 59.581021 62.103975 60.10208 61.923759 60.427252 61.817981 C 60.752423 61.708284 61.277399 61.539822 61.602571 61.437961 C 61.927743 61.340017 62.448801 61.183308 62.777891 61.089282 C 63.103062 60.995257 63.624121 60.850301 63.949292 60.764111 C 64.274464 60.677921 64.79944 60.544718 65.124612 60.466363 C 65.449784 60.388008 65.970842 60.266559 66.296014 60.19604 C 66.625103 60.121603 67.146162 60.011906 67.471333 59.949223 C 67.796505 59.886539 68.321481 59.788596 68.646653 59.72983 C 68.971825 59.671064 69.492883 59.584873 69.818055 59.537861 C 70.147144 59.48693 70.668202 59.412493 70.993374 59.369398 C 71.318546 59.326303 71.843522 59.263619 72.168694 59.22836 C 72.493865 59.1931 73.014924 59.14217 73.340096 59.114746 C 73.665267 59.087322 74.190243 59.048144 74.515415 59.028556 C 74.840587 59.005049 75.361645 58.977625 75.690735 58.965872 C 76.015906 58.950201 76.536965 58.93453 76.862136 58.930612 C 77.187308 58.922777 77.712284 58.918859 78.037456 58.918859 C 78.362628 58.922777 78.883686 58.926695 79.212775 58.938448 C 79.537947 58.946283 80.059006 58.965872 80.384177 58.981543 C 80.709349 58.997214 81.234325 59.024638 81.559497 59.048144 C 81.884669 59.071651 82.405727 59.114746 82.730899 59.146087 C 83.059988 59.173512 83.581046 59.22836 83.906218 59.267537 C 84.23139 59.302797 84.756366 59.369398 85.081538 59.416411 C 85.406709 59.459506 85.927768 59.537861 86.252939 59.588791 C 86.582029 59.639722 87.103087 59.72983 87.428259 59.788596 C 87.753431 59.847361 88.274489 59.949223 88.603579 60.015824 C 88.92875 60.082425 89.449809 60.19604 89.77498 60.270477 C 90.100152 60.344913 90.625128 60.466363 90.9503 60.548635 C 91.275472 60.630908 91.79653 60.768028 92.125619 60.854219 C 92.450791 60.944326 92.971849 61.089282 93.297021 61.187226 C 93.622193 61.281251 94.147169 61.441878 94.472341 61.543739 C 94.797513 61.649518 95.318571 61.817981 95.643743 61.927677 C 95.972832 62.037374 96.49389 62.221507 96.819062 62.339039 C 97.144234 62.456571 97.66921 62.652457 97.994382 62.777825 C 98.319553 62.899275 98.840612 63.106914 99.165783 63.240117 C 99.494873 63.37332 100.015931 63.588795 100.341103 63.729834 C 100.666275 63.866954 101.191251 64.0981 101.516423 64.243057 C 101.841594 64.39193 102.362653 64.630912 102.687824 64.787621 C 103.012996 64.940413 103.537972 65.191148 103.863144 65.355692 C 104.188316 65.516319 104.709374 65.778807 105.038463 65.94727 C 105.363635 66.115732 105.884693 66.393891 106.209865 66.570189 C 106.535037 66.742569 107.060013 67.032482 107.385185 67.216615 C 107.710356 67.396831 108.231415 67.698496 108.560504 67.886547 C 108.885676 68.078516 109.406734 68.391935 109.731906 68.587821 C 110.057078 68.783708 110.582054 69.108879 110.907226 69.312601 C 111.232397 69.516324 111.753456 69.853248 112.078627 70.064806 C 112.407717 70.276363 112.928775 70.625042 113.253947 70.844435 C 113.579119 71.063828 114.104095 71.420341 114.429266 71.64757 C 114.754438 71.874798 115.275497 72.243065 115.600668 72.478129 C 115.929758 72.713193 116.450816 73.093213 116.775988 73.336112 C 117.10116 73.575094 117.622218 73.966867 117.951307 74.217602 C 118.276479 74.464419 118.797537 74.871863 119.122709 75.126515 C 119.447881 75.381168 119.972857 75.800365 120.298029 76.062853 C 120.6232 76.325341 121.144259 76.752374 121.473348 77.022698 C 121.79852 77.293021 122.319578 77.735725 122.64475 78.009966 C 122.969922 78.288125 123.494898 78.742582 123.82007 79.024659 C 124.145241 79.310653 124.6663 79.772945 124.991471 80.066775 C 125.320561 80.356687 125.841619 80.834651 126.166791 81.132398 C 126.491963 81.434064 127.016939 81.919862 127.34211 82.225445 C 127.667282 82.531029 128.188341 83.032498 128.513512 83.345917 C 128.842602 83.659335 129.36366 84.16864 129.688832 84.489894 C 130.014004 84.811148 130.53898 85.332207 130.864151 85.661296 C 131.189323 85.990386 131.710381 86.523197 132.035553 86.860122 C 132.360725 87.197047 132.885701 87.741612 133.210873 88.082454 C 133.536044 88.427215 134.057103 88.983533 134.386192 89.336129 C 134.711364 89.684807 135.232422 90.252878 135.557594 90.609391 C 135.882766 90.969823 136.407742 91.549647 136.732914 91.913996 C 137.058085 92.278345 137.579144 92.869923 137.908233 93.242107 C 138.233405 93.614292 138.754463 94.217622 139.079635 94.597642 C 139.404807 94.977662 139.929783 95.592746 140.254954 95.980602 C 140.580126 96.368457 141.101184 96.995294 141.426356 97.387067 C 141.755446 97.782758 142.276504 98.421349 142.601676 98.820957 C 142.926848 99.224484 143.451824 99.874827 143.776995 100.282271 C 144.102167 100.689715 144.623225 101.351812 144.948397 101.771009 C 145.273569 102.186289 145.798545 102.860139 146.123717 103.283254 C 146.448888 103.706369 146.973864 104.391972 147.299036 104.822922 C 147.624208 105.253873 148.145266 105.947311 148.470438 106.386097 C 148.79561 106.824883 149.320586 107.533993 149.645758 107.976696 C 149.970929 108.423318 150.491988 109.144181 150.821077 109.59472 C 151.146249 110.049177 151.667307 110.781792 151.992479 111.240167 C 152.317651 111.698542 152.842627 112.442911 153.167798 112.909121 C 153.49297 113.379249 154.014028 114.131453 154.3392 114.605499 C 154.66829 115.079544 155.189348 115.84742 155.51452 116.329301 C 155.839691 116.811182 156.364668 117.59081 156.689839 118.080527 C 157.015011 118.566325 157.536069 119.357707 157.861241 119.855259 C 158.190331 120.348893 158.711389 121.152028 159.036561 121.657416 C 159.361732 122.158886 159.886708 122.973774 160.21188 123.483079 C 160.537052 123.992384 161.05811 124.819025 161.383282 125.336166 C 161.708454 125.857224 162.23343 126.691701 162.558601 127.216677 C 162.883773 127.741653 163.404832 128.591801 163.733921 129.124613 C 164.059093 129.657424 164.580151 130.515407 164.905323 131.056054 C 165.230495 131.596701 165.755471 132.470356 166.080642 133.01492 C 166.405814 133.563403 166.926872 134.44881 167.255962 135.00121 C 167.581134 135.557528 168.102192 136.450771 168.427364 137.011007 C 168.752535 137.57516 169.277511 138.480156 169.602683 139.052145 C 169.927855 139.620216 170.448913 140.536965 170.774085 141.11679 C 171.103175 141.692696 171.624233 142.621199 171.949405 143.204941 C 172.274576 143.788683 172.799552 144.728938 173.124724 145.320516 C 173.449896 145.912093 173.970954 146.864102 174.296126 147.463515 C 174.621298 148.062928 175.146274 149.02669 175.471445 149.633939 C 175.796617 150.237269 176.321593 151.216702 176.646765 151.827868 C 176.971937 152.442952 177.492995 153.430221 177.818167 154.049222 C 178.143339 154.668224 178.668315 155.671163 178.993486 156.298 C 179.318658 156.924837 179.839716 157.935612 180.168806 158.570285 C 180.493978 159.204957 181.015036 160.231403 181.340208 160.873911 C 181.665379 161.512501 182.190355 162.5507 182.515527 163.197126 C 182.840699 163.847469 183.361757 164.893504 183.686929 165.551683 C 184.016018 166.205944 184.537077 167.267649 184.862249 167.929746 C 185.18742 168.59576 185.712396 169.665301 186.037568 170.335233 C 186.36274 171.005165 186.883798 172.086459 187.20897 172.768145 C 187.538059 173.445912 188.059118 174.53896 188.384289 175.224563 C 188.709461 175.910166 189.234437 177.014966 189.559609 177.708405 C 189.884781 178.401843 190.405839 179.518397 190.731011 180.219671 C 191.056182 180.917027 191.581159 182.045334 191.90633 182.754443 C 192.231502 183.463553 192.75256 184.603612 193.08165 185.31664 C 193.406822 186.033585 193.92788 187.185398 194.253052 187.90626 C 194.578223 188.627123 195.103199 189.790689 195.428371 190.523305 C 195.753543 191.252003 196.274601 192.427323 196.603691 193.163856 C 196.928862 193.90039 197.449921 195.087463 197.775093 195.831832 C 198.100264 196.576201 198.62524 197.775027 198.950412 198.523314 C 199.275584 199.275518 199.796642 200.486097 200.121814 201.246137 C 200.450903 202.002259 200.971962 203.224592 201.297133 203.992467 C 201.622305 204.756425 202.147281 205.99051 202.472453 206.762303 C 202.797625 207.538014 203.318683 208.783853 203.643855 209.563482 C 203.969026 210.34311 204.494003 211.600702 204.819174 212.388166 C 205.144346 213.17563 205.669322 214.444976 205.994494 215.240275 C 206.319666 216.035575 206.840724 217.312755 207.165896 218.11589 C 207.491067 218.919025 208.016043 220.211877 208.341215 221.018929 C 208.666387 221.8299 209.187445 223.134505 209.516535 223.949393 C 209.841706 224.768199 210.362765 226.084557 210.687936 226.90728 C 211.013108 227.730004 211.538084 229.058115 211.863256 229.888674 C 212.188428 230.723151 212.709486 232.059098 213.034658 232.897492 C 213.363747 233.735887 213.884806 235.087504 214.209977 235.933734 C 214.535149 236.779964 215.060125 238.143335 215.385297 238.993483 C 215.710469 239.847548 216.231527 241.222672 216.556699 242.084573 C 216.885788 242.942557 217.406846 244.329434 217.732018 245.195252 C 218.05719 246.064989 218.582166 247.459701 218.907338 248.337273 C 219.23251 249.210927 219.753568 250.621311 220.07874 251.5028 C 220.403911 252.38429 220.928887 253.806427 221.254059 254.695752 C 221.579231 255.585077 222.100289 257.018967 222.429379 257.91221 C 222.75455 258.80937 223.275609 260.255013 223.60078 261.160009 C 223.925952 262.065005 224.450928 263.518484 224.7761 264.431315 C 225.101272 265.340229 225.62233 266.809379 225.95142 267.730046 C 226.276591 268.646795 226.79765 270.12378 227.122821 271.052282 C 227.447993 271.976867 227.972969 273.469523 228.298141 274.401943 C 228.623313 275.334363 229.144371 276.838772 229.469543 277.779028 C 229.798632 278.719283 230.31969 280.231528 230.644862 281.179619 C 230.970034 282.12771 231.49501 283.655625 231.820182 284.607634 C 232.145353 285.563561 232.666412 287.103229 232.991584 288.063073 C 233.316755 289.026836 233.841731 290.57434 234.166903 291.545937 C 234.492075 292.513617 235.017051 294.076792 235.342223 295.052307 C 235.667394 296.03174 236.188453 297.60275 236.513624 298.586101 C 236.838796 299.569452 237.363772 301.156133 237.688944 302.147319 C 238.014116 303.138505 238.535174 304.733022 238.864263 305.732044 C 239.189435 306.731065 239.710494 308.341253 240.035665 309.344193 C 240.360837 310.35105 240.885813 311.972991 241.210985 312.983765 C 241.536157 313.998458 242.057215 315.628234 242.382387 316.650762 C 242.711476 317.669373 243.232534 319.310902 243.557706 320.341266 C 243.882878 321.367711 244.733026 324.059193 244.733026 324.059193 " transform="matrix(0.997069, 0, 0, -0.997069, 3.44125, 326.679778)"/>
</g>
<g clip-path="url(#clip-1)">
<path fill="none" stroke-width="0.79701" stroke-linecap="butt" stroke-linejoin="miter" stroke="rgb(100%, 0%, 0%)" stroke-opacity="1" stroke-miterlimit="10" d="M 50.057016 0.0000907177 L 51.091297 1.097056 L 52.125578 2.190103 L 53.159859 3.287068 L 54.19414 4.380115 L 56.262703 6.574045 L 57.296984 7.667092 L 59.365546 9.861022 L 60.399827 10.954069 L 61.434109 12.051034 L 62.46839 13.144081 L 64.536952 15.338011 L 65.571233 16.431058 L 67.639796 18.624988 L 68.674077 19.718035 L 69.708358 20.815 L 70.742639 21.908047 L 72.811202 24.101977 L 73.845483 25.195024 L 75.914045 27.388954 L 76.948326 28.482001 L 77.982608 29.578966 L 79.016889 30.672013 L 80.047252 31.768978 L 81.081534 32.865943 L 82.115815 33.95899 L 83.150096 35.055955 L 84.184377 36.149002 L 86.252939 38.342932 L 87.287221 39.435979 L 89.355783 41.629909 L 90.390064 42.722956 L 91.424345 43.819921 L 92.458627 44.912968 L 94.527189 47.106898 L 95.56147 48.199945 L 97.630033 50.393875 L 98.664314 51.486922 L 99.698595 52.583887 L 100.732876 53.676934 L 102.801439 55.870864 L 103.83572 56.963911 L 105.904282 59.157841 L 106.938563 60.250888 L 107.972845 61.347853 L 109.007126 62.4409 L 110.041407 63.537865 L 111.07177 64.63483 L 112.106052 65.727877 L 114.174614 67.921807 L 115.208895 69.014854 L 116.243176 70.111819 L 117.277458 71.204866 L 119.34602 73.398796 L 120.380301 74.491843 L 122.448863 76.685773 L 123.483145 77.77882 L 124.517426 78.875785 L 125.551707 79.968832 L 127.620269 82.162762 L 128.654551 83.255809 L 129.688832 84.352774 L 130.723113 85.445821 L 132.791675 87.639751 L 133.825957 88.732798 L 135.894519 90.926728 L 136.9288 92.019775 L 137.963081 93.11674 L 138.997363 94.209787 L 141.065925 96.403717 L 142.096288 97.496764 L 144.164851 99.690694 L 145.199132 100.783741 L 146.233413 101.880706 L 147.267694 102.973753 L 149.336257 105.167683 L 150.370538 106.26073 L 152.4391 108.45466 L 153.473381 109.547707 L 154.507663 110.644672 L 155.541944 111.737719 L 157.610506 113.931649 L 158.644787 115.024696 L 160.71335 117.218626 L 161.747631 118.311673 L 162.781912 119.408638 L 163.816193 120.501685 L 165.884756 122.695615 L 166.919037 123.788662 L 167.953318 124.885627 L 168.987599 125.978674 L 171.056162 128.172604 L 172.090443 129.265651 L 173.120806 130.362616 L 174.155088 131.459581 L 175.189369 132.552628 L 176.22365 133.649593 L 177.257931 134.74264 L 179.326494 136.93657 L 180.360775 138.029617 L 182.429337 140.223547 L 183.463618 141.316594 L 184.497899 142.413559 L 185.532181 143.506606 L 187.600743 145.700536 L 188.635024 146.793583 L 190.703587 148.987513 L 191.737868 150.08056 L 192.772149 151.177525 L 193.80643 152.270572 L 195.874993 154.464502 L 196.909274 155.557549 L 198.977836 157.751479 L 200.012117 158.844526 L 201.046399 159.941491 L 202.08068 161.034538 L 203.114961 162.131503 L 204.145324 163.228468 L 205.179606 164.321515 L 207.248168 166.515445 L 208.282449 167.608492 L 209.31673 168.705457 L 210.351012 169.798504 L 212.419574 171.992434 L 213.453855 173.085481 L 214.488136 174.182446 L 215.522418 175.275493 L 217.59098 177.469423 L 218.625261 178.56247 L 220.693823 180.7564 L 221.728105 181.849447 L 222.762386 182.946412 L 223.796667 184.039459 L 225.865229 186.233389 L 226.899511 187.326436 L 228.968073 189.520366 L 230.002354 190.613413 L 231.036635 191.710378 L 232.070917 192.803425 L 233.105198 193.90039 L 234.135561 194.997355 L 235.169842 196.090402 L 237.238405 198.284332 L 238.272686 199.377379 L 239.306967 200.474344 L 240.341248 201.567391 L 242.409811 203.761321 L 243.444092 204.854368 L 245.512654 207.048298 L 246.546936 208.141345 L 247.581217 209.23831 L 248.615498 210.331357 L 250.68406 212.525287 L 251.718341 213.618334 L 252.752623 214.715299 L 253.786904 215.808346 L 255.855466 218.002276 " transform="matrix(0.997069, 0, 0, -0.997069, 3.44125, 326.679778)"/>
</g>
<g fill="rgb(0%, 0%, 0%)" fill-opacity="1">
<use xlink:href="#glyph-1-6" x="110.956227" y="232.568403"/>
<use xlink:href="#glyph-1-0" x="114.819328" y="232.568403"/>
</g>
<g fill="rgb(0%, 0%, 0%)" fill-opacity="1">
<use xlink:href="#glyph-2-0" x="119.786029" y="232.568403"/>
</g>
<g fill="rgb(0%, 0%, 0%)" fill-opacity="1">
<use xlink:href="#glyph-1-0" x="124.204406" y="232.568403"/>
<use xlink:href="#glyph-1-7" x="129.171107" y="232.568403"/>
</g>
<path fill-rule="nonzero" fill="rgb(0%, 0%, 0%)" fill-opacity="1" stroke-width="0.3985" stroke-linecap="butt" stroke-linejoin="miter" stroke="rgb(0%, 0%, 0%)" stroke-opacity="1" stroke-miterlimit="10" d="M 135.083548 88.380202 C 135.083548 89.261692 134.370521 89.974719 133.489032 89.974719 C 132.61146 89.974719 131.894515 89.261692 131.894515 88.380202 C 131.894515 87.498712 132.61146 86.785685 133.489032 86.785685 C 134.370521 86.785685 135.083548 87.498712 135.083548 88.380202 Z M 135.083548 88.380202 " transform="matrix(0.997069, 0, 0, -0.997069, 3.44125, 326.679778)"/>
<g fill="rgb(0%, 0%, 0%)" fill-opacity="1">
<use xlink:href="#glyph-2-1" x="273.144501" y="275.71857"/>
</g>
<g fill="rgb(0%, 0%, 0%)" fill-opacity="1">
<use xlink:href="#glyph-2-2" x="72.346714" y="71.567639"/>
</g>
<path fill-rule="nonzero" fill="rgb(100%, 100%, 100%)" fill-opacity="1" stroke-width="0.3985" stroke-linecap="butt" stroke-linejoin="miter" stroke="rgb(0%, 0%, 0%)" stroke-opacity="1" stroke-miterlimit="10" d="M 186.91514 215.961138 L 261.442152 215.961138 L 261.442152 245.438152 L 186.91514 245.438152 Z M 186.91514 215.961138 " transform="matrix(0.997069, 0, 0, -0.997069, 3.44125, 326.679778)"/>
<path fill="none" stroke-width="1.19553" stroke-linecap="butt" stroke-linejoin="miter" stroke="rgb(0%, 0%, 100%)" stroke-opacity="1" stroke-miterlimit="10" d="M 0.000864585 -0.000238467 C 0.000864585 -0.000238467 6.143868 -0.000238467 8.502343 -0.000238467 C 10.864735 -0.000238467 17.007738 -0.000238467 17.007738 -0.000238467 " transform="matrix(0.997069, 0, 0, -0.997069, 193.38195, 90.726325)"/>
<g fill="rgb(0%, 0%, 0%)" fill-opacity="1">
<use xlink:href="#glyph-2-2" x="221.732618" y="94.02463"/>
</g>
<g fill="rgb(0%, 0%, 0%)" fill-opacity="1">
<use xlink:href="#glyph-1-8" x="229.722054" y="94.02463"/>
</g>
<g fill="rgb(0%, 0%, 0%)" fill-opacity="1">
<use xlink:href="#glyph-2-1" x="240.199807" y="94.02463"/>
</g>
<g fill="rgb(0%, 0%, 0%)" fill-opacity="1">
<use xlink:href="#glyph-3-0" x="245.880639" y="90.420224"/>
</g>
<path fill="none" stroke-width="0.79701" stroke-linecap="butt" stroke-linejoin="miter" stroke="rgb(100%, 0%, 0%)" stroke-opacity="1" stroke-miterlimit="10" d="M 0.000864585 -0.000619968 L 17.007738 -0.000619968 " transform="matrix(0.997069, 0, 0, -0.997069, 193.38195, 103.432976)"/>
<g fill="rgb(0%, 0%, 0%)" fill-opacity="1">
<use xlink:href="#glyph-2-2" x="212.923511" y="105.888757"/>
</g>
<g fill="rgb(0%, 0%, 0%)" fill-opacity="1">
<use xlink:href="#glyph-1-8" x="220.912947" y="105.888757"/>
</g>
<g fill="rgb(0%, 0%, 0%)" fill-opacity="1">
<use xlink:href="#glyph-1-1" x="231.3907" y="105.888757"/>
</g>
<g fill="rgb(0%, 0%, 0%)" fill-opacity="1">
<use xlink:href="#glyph-2-1" x="236.357401" y="105.888757"/>
</g>
<g fill="rgb(0%, 0%, 0%)" fill-opacity="1">
<use xlink:href="#glyph-0-0" x="244.249489" y="105.888757"/>
</g>
<g fill="rgb(0%, 0%, 0%)" fill-opacity="1">
<use xlink:href="#glyph-1-0" x="254.180905" y="105.888757"/>
</g>
</svg>
